<svg width="659" height="790" fill="none" xmlns="http://www.w3.org/2000/svg"><path fill-rule="evenodd" clip-rule="evenodd" d="M211.021 1c0 .55.45 1 1 1s1-.45 1-1-.45-1-1-1-1 .45-1 1zm84.762-.293c1.244.239 3.044.23 4-.02s-.062-.446-2.262-.435c-2.2.011-2.982.216-1.738.455zm-97.949.976c.721.289 1.584.253 1.916-.079.332-.332-.258-.568-1.312-.525-1.165.048-1.402.285-.604.604zm25.588.818c8.603 1.411 20.444 4.341 25.599 6.333 2.326.899 2.365 1.02.562 1.745-3.972 1.597-15.125.708-25.062-1.999-11.906-3.243-33.882-5.42-40.503-4.013-3.592.764-1.951.957 9.058 1.064 23.394.229 49.219 7.205 36.695 9.913-1.787.386-6.914 1.944-11.393 3.46l-8.142 2.758-8.331-2.413c-13.417-3.886-25.03-5.356-40.884-5.176l-14.5.164 16.5.691c16.088.674 31.298 3.051 40.515 6.333l3.985 1.418-3 1.164c-1.65.64-7.95 3.392-14 6.116-12.761 5.745-15.554 6.061-28 3.165-16.809-3.912-44.503-5.547-50.175-2.962-3.054 1.391-1.913 2.912 1.276 1.7 6.693-2.545 39.491-.209 53.899 3.839 5.251 1.475 3.803 3.979-5.571 9.634-7.316 4.413-9.001 5.053-11.5 4.365-6.601-1.814-22.406-4.662-29.441-5.305l-7.512-.685-7.988 5.708c-10.273 7.342-19.956 15.144-28.88 23.27-3.91 3.559-8.57 7.357-10.358 8.44-3.214 1.948-4.418 4.802-2 4.74 1.65-.042 4.75-2.43 4.75-3.658 0-1.472 18.676-17.697 31.823-27.647l11.677-8.837 8.5.517c7.376.449 27.138 4.035 29.225 5.303.398.242-4.552 4.421-11 9.285-20.149 15.2-42.4 36.785-54.914 53.272-1.64 2.159-3.436 3.525-4.31 3.278-10.453-2.954-52.22-4.494-66.38-2.447-4.523.654-7.289.657-8.069.009-.803-.666-1.896-.491-3.37.542-2.68 1.878-3.022 4.97-.432 3.918 4.441-1.805 8.154-2.44 20.616-3.528 13.721-1.197 30.578-.457 49.335 2.167l8.202 1.147-4.078 5.606c-6.212 8.539-17.093 25.178-16.686 25.515.198.164 3.961.837 8.361 1.495 9.491 1.42 28.703 5.127 29.705 5.732.388.234-.692 2.774-2.4 5.645-8.883 14.92-22.177 44.3-28.38 62.718-1.02 3.025-2.958 6.441-4.307 7.59-2.775 2.363-2.364 5.41.728 5.41 2.594 0 4.457-2.471 3.688-4.894-1.022-3.22 8.634-27.618 20.03-50.606 5.725-11.55 11.203-21.998 12.173-23.217l1.763-2.218 10 2.511c6.546 1.643 10.593 3.21 11.718 4.538 1.637 1.933 1.601 2.213-.776 5.978-1.815 2.875-2.146 4.077-1.218 4.415.702.255 9.151 2.688 18.776 5.406 9.625 2.717 18.727 5.409 20.227 5.98l2.726 1.04-3.925 7.283C153.167 204.273 145.374 222.46 141 235c-1.822 5.225-3.913 10.21-4.646 11.079-2.953 3.497-.254 7.02 3.739 4.882 2.304-1.233 2.378-1.805.501-3.882-1.249-1.382-.815-3.256 3.482-15.031 2.7-7.399 8.371-20.558 12.602-29.243 4.23-8.684 7.483-15.999 7.227-16.255-.256-.255-9.222-2.999-19.925-6.097-10.702-3.097-20.049-5.813-20.77-6.034-2.282-.701 1.705-6.051 5.341-7.167 2.732-.838 5.382-.332 16.76 3.201 7.434 2.308 20.321 6.637 28.638 9.621 15.893 5.701 17.478 7.006 11.81 9.723-3.093 1.482-3.383 2.423-1.286 4.163 2.412 2.002 5.036.843 5.15-2.274.193-5.307 1.433-5.291 15.083.2 16.92 6.808 16.011 6.051 13.004 10.815-3.86 6.114-11.963 22.767-16.203 33.299-2.104 5.225-4.463 10.029-5.243 10.674-2.072 1.716-1.105 4.772 1.633 5.161 3.294.468 4.587-1.12 2.992-3.675-1.122-1.796-.846-3.19 2.054-10.368 3.605-8.924 16.141-34.247 18.277-36.92 1.191-1.491 1.749-1.428 6.594.749l5.292 2.377-2.682 4.751c-1.475 2.613-3.78 5.696-5.121 6.851-2.266 1.952-2.322 2.217-.789 3.75 2.952 2.952 7.407 1.065 5.332-2.259-.79-1.265-.305-2.884 2.072-6.916 1.706-2.894 3.103-5.692 3.103-6.216s-2.732-2.191-6.071-3.706l-6.071-2.753 7.103-10.25c3.907-5.637 7.405-10.25 7.774-10.25.369 0 8.454 4.384 17.968 9.742 15.556 8.762 17.297 10.007 17.297 12.378 0 1.449.652 3.176 1.449 3.838 1.23 1.02.571 2.519-4.336 9.872-3.182 4.769-6.103 9.219-6.491 9.891-.478.828 2.927 3.036 10.587 6.864 6.21 3.104 11.449 5.787 11.641 5.963.193.175-2.134 5.411-5.17 11.635-3.036 6.225-6.736 14.795-8.222 19.046-1.486 4.251-3.322 8.244-4.08 8.872-2.156 1.79-1.623 3.799 1.195 4.507 3.439.863 4.979-.751 3.293-3.451-1.133-1.815-.748-3.453 3.027-12.868 2.379-5.934 6.315-14.579 8.747-19.211 3.409-6.49 4.129-8.627 3.141-9.32-.704-.495-5.894-3.096-11.531-5.78-5.637-2.685-10.25-5.171-10.25-5.526 0-.355 2.492-4.468 5.538-9.141 4.441-6.813 5.877-8.344 7.25-7.73.942.422 4.053.837 6.915.922 4.08.121 6.487.947 11.151 3.826 3.271 2.019 6.119 3.671 6.329 3.671.21 0 4.154-4.275 8.765-9.5 4.61-5.225 8.955-9.5 9.656-9.5 1.202 0 20.396 15.682 20.396 16.665 0 .253-3.168 4.056-7.041 8.45-8.437 9.575-14.757 18.04-18.985 25.431-1.717 3-3.763 5.454-4.547 5.454-2.233 0-1.678 1.79 1.124 3.626 1.921 1.258 2.835 1.388 3.7.523.864-.864.864-1.434.003-2.295-1.491-1.491.658-5.739 8.275-16.354 6.548-9.125 18.244-22.5 19.676-22.5 1.558 0 17.876 15.266 19.342 18.095 1.275 2.461 1.113 2.822-3.13 6.986-2.461 2.415-6.363 6.985-8.671 10.155-2.309 3.17-4.771 5.764-5.472 5.764-2.245 0-1.362 3.003 1.23 4.184 2.903 1.323 4.306.497 2.615-1.54-.927-1.118-.314-2.504 2.994-6.775 2.288-2.953 6.165-7.451 8.615-9.997 4.276-4.441 4.565-4.573 7.177-3.269 6.031 3.008 44.832 44.248 66 70.147 4.608 5.637 8.577 10.25 8.82 10.25 1.062 0-22.406-28.344-35.188-42.5-4.966-5.5-15.106-16.3-22.533-24-15.841-16.423-16.867-17.889-14.417-20.596 2.264-2.501 3.417-2.402 5.875.507 1.121 1.325 7.686 8.863 14.589 16.75 14.335 16.376 24.776 29.246 37.392 46.089 8.768 11.705 13.14 16.486 5.944 6.5-14.083-19.544-35.634-46.292-51.262-63.622l-8.452-9.373 2.288-1.726c2.221-1.675 2.447-1.619 7.636 1.873 5.672 3.817 20.768 22.937 34.85 44.139 3.82 5.752 7.083 10.647 7.25 10.876.166.229.61.109.986-.267.376-.375-.302-1.913-1.505-3.416-1.204-1.504-4.823-6.559-8.042-11.234-3.22-4.675-10.868-15.227-16.995-23.449-6.128-8.221-11.141-15.898-11.141-17.058 0-1.161-.661-2.984-1.468-4.052-2.42-3.199-1.793-4.335 3.944-7.149l5.476-2.685 2.609 2.446c4.062 3.811 19.785 30.699 30.815 52.697 3.102 6.188 5.865 11.25 6.14 11.25 1.327 0-20.288-40.778-30.264-57.095-5.02-8.21-6.055-11.905-3.335-11.905 2.115 0 6.861 7.793 17.542 28.807 5.459 10.74 5.879 11.278 8.394 10.729 2.342-.511 2.922-.056 5.036 3.943 2.883 5.457 5.678 6.199 4.781 1.271-.326-1.787-.872-4.206-1.215-5.374-.525-1.791-.134-2.196 2.484-2.58l3.107-.456 2.97 9.08c1.634 4.994 2.701 7.565 2.372 5.713-.329-1.852-1.609-6.352-2.843-10l-2.245-6.633-4.15.336c-2.283.185-4.15-.068-4.15-.561 0-.494-.869-1.831-1.931-2.971-1.063-1.14-4.536-7.863-7.718-14.939-3.183-7.076-6.547-14.437-7.477-16.359-.93-1.922-1.509-3.788-1.287-4.147.477-.772 10.221-2.468 19.551-3.403l6.638-.665 1.073 3.355c1.132 3.536 6.973 26.839 9.49 37.854.816 3.575 1.524 5.825 1.572 5 .125-2.152-2.305-13.416-6.371-29.528-3.996-15.831-4.078-16.472-2.112-16.472 1.717 0-.776-10.009-7.996-32.101-2.528-7.737-4.391-14.274-4.138-14.526.67-.67 17.087 1.478 25.016 3.273 5.499 1.245 6.984 1.997 7.711 3.908.494 1.301 1.847 3.314 3.006 4.473 1.676 1.676 2.4 1.864 3.54.917.788-.654 1.433-2.01 1.433-3.014 0-1.589.384-1.692 2.959-.794 3.512 1.224 3.714 1.8 4.595 13.102l.681 8.739-3.809-1.319c-4.445-1.539-4.952-2.316-6.298-9.658l-1.008-5.5.502 6.584.502 6.583-6.812-1.727c-3.747-.95-6.953-1.597-7.125-1.437-.172.159.846 7.198 2.261 15.643 2.874 17.144 6.703 48.801 6.033 49.884-.597.967-5.481-.054-5.481-1.147 0-.485-.45-.883-1-.883-1.255 0-1.281 4.008-.038 5.972.793 1.255 1.031 1.21 1.611-.302.522-1.359 1.351-1.626 3.554-1.142 2.149.472 2.873.26 2.873-.842 0-6.582-4.789-43.974-7.42-57.936-1.457-7.737-1.603-7.623 6.92-5.418l5 1.293 1.141 11.937c.627 6.566 1.463 20.263 1.857 30.438.394 10.175.893 18.687 1.109 18.917 1.207 1.28-.297-36.101-2.199-54.664l-.64-6.246 4.242 1.496c2.333.824 4.479 1.497 4.769 1.497.289 0 .244-4.935-.101-10.966l-.627-10.965 2.224.856c7.217 2.779 13.725 6.107 13.725 7.02 0 .58.675 1.055 1.5 1.055 1.755 0 2.003-3.097.378-4.722-.617-.617-1.75-.881-2.517-.586-.768.294-4.682-.943-8.698-2.75l-7.302-3.286-1.197-9.478c-.658-5.213-1.004-9.671-.769-9.906.747-.748 23.605 10.542 23.605 11.658 0 .589.675 1.07 1.5 1.07s1.493-.562 1.485-1.25c-.026-2.065-1.607-3.922-3.091-3.628-.767.151-5.669-1.779-10.894-4.291-5.225-2.511-10.453-4.862-11.618-5.224-1.743-.541-2.42-2.178-3.821-9.229-.936-4.714-1.549-8.723-1.363-8.909 1.121-1.122 29.398 13.135 31.806 16.036 1.816 2.188 3.182 1.825 2.816-.749-.206-1.442-1.212-2.443-2.82-2.803-1.375-.308-9.319-3.904-17.653-7.993l-15.153-7.433-5.424-16.014c-2.984-8.807-5.774-16.797-6.201-17.755-.73-1.636-.541-1.647 3.077-.178 9.516 3.863 28.809 13.881 31.812 16.517 3.657 3.211 6.206 3.912 4.748 1.306-1.246-2.226-27.341-15.791-37.32-19.4-2.805-1.014-4.154-2.526-6.791-7.613l-3.292-6.348-12.575-4.092c-8.064-2.623-13.85-5.142-16.13-7.02-1.954-1.612-4.048-2.93-4.652-2.93-.603 0-2.108-1.075-3.342-2.39-1.702-1.811-4.466-2.811-11.425-4.13-9.66-1.833-12.204-2.958-9.25-4.091 5.046-1.936 46.376 10.708 66.988 20.494 14.03 6.661 17.037 7.379 4.495 1.073-18.273-9.188-41.619-17.413-61.912-21.814-5.225-1.133-11.3-2.96-13.5-4.06-3.889-1.944-9.186-6.73-8.361-7.554.653-.653 21.384 3.965 32.827 7.312 5.756 1.684 10.666 2.862 10.91 2.617.245-.245-.372-1.347-1.37-2.451-.999-1.103-1.494-2.006-1.101-2.006 3.192 0 36.378 15.355 43.095 19.939 3.199 2.184 4.998 2.676 4.025 1.101-1.003-1.623-25.35-13.523-37.932-18.54-9.407-3.751-13.713-6.16-20.5-11.468-4.726-3.697-9.493-7.003-10.593-7.348-1.901-.597-1.908-.567-.138.594 4.196 2.753 14.667 11.026 14.353 11.34-.186.186-5.035-.995-10.776-2.625-5.742-1.63-14.489-3.845-19.439-4.923-12.103-2.635-14.927-3.812-22.296-9.293-3.463-2.576-8.863-6.137-12-7.914-3.137-1.777-5.929-3.498-6.204-3.824-.482-.573-10.935-4.175-14-4.826-1.598-.339 2.192 1.555 13.5 6.745 7.886 3.619 21.628 12.817 22.312 14.934.344 1.066-.225 1.235-2.431.723-1.585-.367-13.231-.927-25.881-1.244l-23-.577-7.5-4.764C300.885 12.687 294.307 9 292.557 9c-2.659 0-1.188 2.463 1.676 2.805 2.776.332 22.981 12.273 23.524 13.904.359 1.077-12.966 2.754-21.236 2.673-4.035-.04-6.139-.781-10.897-3.841-3.243-2.085-10.801-6.156-16.795-9.046-10.395-5.014-10.745-5.282-7.602-5.833 9.739-1.708 21.96-2.939 35.794-3.606 14.132-.681 14.608-.761 5.39-.902-5.56-.084-17.035.609-25.5 1.542-20.636 2.273-22.584 2.196-35.89-1.411-6.325-1.715-14.875-3.371-19-3.681l-7.5-.564 8.901 1.461zm98.349.161c.688.278 1.813.278 2.5 0 .688-.277.125-.504-1.25-.504s-1.937.227-1.25.504zm-7.937 3.021c.721.289 1.584.253 1.916-.079.332-.332-.258-.568-1.312-.525-1.165.048-1.402.285-.604.604zm4 0c.721.289 1.584.253 1.916-.079.332-.332-.258-.568-1.312-.525-1.165.048-1.402.285-.604.604zm6.937 1.023c1.238.238 3.262.238 4.5 0 1.238-.239.225-.434-2.25-.434s-3.488.195-2.25.434zm8.5.983c.962.252 2.538.252 3.5 0 .962-.251.175-.457-1.75-.457s-2.712.206-1.75.457zm-85.051 4.297c-3.825.906-5.27 2.085-3.381 2.757 3.843 1.368 23.965 11.697 28.751 14.758 5.119 3.275 5.837 3.467 9.384 2.512 2.113-.569 4.123-1.769 4.468-2.667.344-.898.503-1.718.353-1.822-3.553-2.466-14.821-8.621-22.073-12.056-9.518-4.509-11.5-4.903-17.502-3.482zm-105.93 3.707c.973.254 2.323.237 3-.037.677-.274-.119-.481-1.769-.461-1.65.02-2.204.244-1.231.498zm81.915 2.718c-5.674 1.863-10.526 3.598-10.783 3.854-.256.257 2.258 1.486 5.588 2.731 3.329 1.245 6.252 2.585 6.495 2.978.242.392-5.055 3.061-11.772 5.929-6.716 2.869-13.787 6.047-15.712 7.063l-3.5 1.847 4.5 1.761c2.475.968 11.043 5.074 19.041 9.123l14.54 7.361 10.46-4.904c5.752-2.698 14.398-6.389 19.213-8.203l8.754-3.298-4.085-2.704c-2.247-1.487-4.111-3.097-4.143-3.577-.032-.479 3.042-1.811 6.831-2.96l6.889-2.087-5-3.241c-9.452-6.127-27.669-14.4-32.455-14.739-3.159-.224-7.692.711-14.861 3.066zm-86.371-1.728c.721.289 1.584.253 1.916-.079.332-.332-.258-.568-1.312-.525-1.165.048-1.402.285-.604.604zm57.19 12.867c-16.141 7.272-16.563 7.888-7.439 10.846l5.065 1.641 11.435-5.327c6.29-2.93 13.011-6.03 14.936-6.889l3.5-1.561-4-1.724c-7.788-3.356-9.983-3.074-23.497 3.014zm128.997-1.569c0 .539 1.238 1.246 2.75 1.569 1.512.324 4.55 1.192 6.75 1.928 2.481.832 11.404 1.563 23.5 1.928 10.725.323 20.85.887 22.5 1.252 2.755.61 2.883.523 1.573-1.063-2.707-3.275-6.969-4.577-18.253-5.576-14.734-1.304-38.82-1.328-38.82-.038zm-223 2.095c-2.66 1.515-2.9 1.839-1 1.351 1.375-.353 3.159-1.268 3.964-2.034 1.966-1.87 1.219-1.698-2.964.683zm204.5-.87c-3.85.523-7.372 1.31-7.827 1.749-.455.44.591 1.809 2.324 3.043 2.779 1.978 3.881 2.161 9.327 1.546 9.777-1.104 11.132-1.551 12.321-4.072.616-1.305.873-2.621.571-2.923-.769-.769-8.433-.468-16.716.657zm76.5 2.298c0 2.105 4.771 4.341 11.737 5.503 6.815 1.136 28.189 6.548 33.763 8.549 1.721.618 1.652.367-.5-1.805-2.689-2.714-9.689-5.252-25.441-9.225-11.368-2.868-19.559-4.133-19.559-3.022zm-97.91 1.684l-3.41.952 4.262 2.821c3.496 2.315 4.826 2.679 7.41 2.027a288.936 288.936 0 015.982-1.431l2.834-.637-2.334-1.808c-2.889-2.237-10.201-3.191-14.744-1.924zm54.45 2.055c.328.855.068 1.881-.579 2.281-.761.471 2.286 4.2 8.664 10.601L356.483 58h9.662c8.044 0 9.768-.275 10.293-1.645.631-1.644-.11-2.806-5.886-9.222l-3.031-3.366 10.406.707c5.723.39 11.011.94 11.75 1.224 2.215.85 1.473-1.979-1.433-5.466-3.477-4.172-8.411-5.07-32.501-5.918-15.832-.557-17.713-.455-17.182.929zm-68.453 1.577l-5.413 1.699 4.172 2.761 4.173 2.761 6.49-1.73c3.57-.951 6.491-2.048 6.491-2.439 0-1.186-6.61-4.876-8.618-4.811-1.035.034-4.318.825-7.295 1.759zm43.913-.428c-5.943.897-7.446 1.464-7.238 2.731.198 1.207-1.21 1.911-5.75 2.874-3.307.702-6.002 1.552-5.991 1.89.012.337 1.7 1.805 3.75 3.261 2.051 1.457 8.772 7.194 14.937 12.75C321.373 66.788 325.7 70 327.339 70c1.322 0 4.138 1.178 6.26 2.617l3.856 2.617 10.033-1.712c5.518-.941 17.12-1.958 25.783-2.259 8.663-.3 15.75-.748 15.75-.995s-1.238-2.184-2.75-4.306c-4.045-5.673-8.562-7.083-20.255-6.323l-9.495.617-9.953-10.144c-7.887-8.039-10.793-10.354-14-11.154-2.226-.555-5.525-1.673-7.331-2.484-1.806-.811-3.381-1.416-3.5-1.345-.119.072-3.591.64-7.716 1.263zm-17.173 2.977c-4.846 1.173-7.363 2.631-4.543 2.631 3.617 0 11.691-2.231 11.164-3.084-.643-1.04-.378-1.058-6.621.453zm-120.984.773c-3.868.834-18.843 9.436-18.843 10.824 0 1.803 5.365 2.06 9.558.459 2.446-.934 5.802-1.449 7.65-1.173 2.524.376 4.748-.344 9.534-3.089 3.433-1.969 5.908-3.876 5.5-4.238-2.116-1.88-9.998-3.517-13.399-2.783zm103.759 3.562c-3.084.942-4.438 1.779-3.657 2.262 1.082.668 12.667-2.245 13.923-3.501.982-.982-5.591-.189-10.266 1.239zm-93.871 4.054c-4.613 2.52-6.597 4.15-6.226 5.115.299.779-.21 2.248-1.13 3.265-1.596 1.763-1.428 1.951 3.636 4.055a312.882 312.882 0 0110.81 4.795l5.501 2.588-9.36 6.844-9.361 6.844 5.45 2.821c2.997 1.551 6.061 2.842 6.808 2.868.747.026 5.262-2.817 10.032-6.319 4.77-3.501 13.027-8.973 18.351-12.16 5.323-3.187 9.408-6.231 9.079-6.764-.633-1.024-31.4-16.121-34.821-17.086-1.252-.353-4.532.819-8.769 3.134zm100.269-2.16c-2.475.77-5.093 1.623-5.817 1.896-.794.298 1.393 2.549 5.5 5.662 8.1 6.14 17.909 14.4 24.817 20.897 4.95 4.656 8.955 6.477 11.825 5.376 1.271-.488 1.291-.941.135-3.169-.875-1.686-1.033-3.19-.449-4.28.716-1.339-.664-3.092-6.806-8.64-10.72-9.684-22.678-19.359-23.781-19.241-.508.054-2.949.729-5.424 1.499zm86 .201c0 1.374 7.789 9.449 10.352 10.733 1.732.866 8.323 2.201 14.648 2.965 6.325.764 13.637 1.701 16.25 2.082 4.013.585 4.75.439 4.75-.943 0-.9.546-1.636 1.214-1.636.832 0 .754-.436-.25-1.385-.805-.762-5.412-2.1-10.238-2.973-6.787-1.227-9.618-2.264-12.5-4.578-3.368-2.705-4.71-3.071-13.976-3.811-5.637-.45-10.25-.654-10.25-.454zm-112.5 5.069c-12.374 4.994-24.97 10.999-24.351 11.61.193.19 7.101 4.833 15.351 10.316 8.25 5.483 18.547 12.723 22.882 16.088 4.335 3.365 8.222 6.118 8.638 6.118.415 0 3.787-1.419 7.492-3.152 6.509-3.046 6.667-3.206 4.702-4.75-1.118-.879-5.111-4.133-8.874-7.231-3.762-3.099-12.24-9.558-18.84-14.354-6.6-4.796-12.136-9.081-12.302-9.523-.262-.695 10.848-5.405 17.552-7.441 2.386-.725 3.109-2.558 1-2.537-.687.007-6.65 2.192-13.25 4.856zm7.047 1.184c-4.375 1.625-8.332 3.333-8.795 3.796-.462.462 2.667 3.259 6.954 6.214 4.287 2.956 13.53 10 20.54 15.653l12.746 10.28 6.754-2.659c3.715-1.462 6.811-2.698 6.88-2.747.069-.049.418-1.041.775-2.205.538-1.756-1.021-3.581-9.183-10.742-12.536-11-25.287-20.645-27.218-20.589-.825.024-5.079 1.374-9.453 2.999zm-123.047 7.617c-13.238 9.785-24.601 19.734-37.115 32.496-11.93 12.166-22.815 24.739-22.065 25.488 1.283 1.283 27.854 6.744 32.165 6.611 4.715-.146 5.229-.44 9.5-5.458 2.483-2.917 6.18-7.104 8.216-9.305l3.701-4.001 12.686 4.333 12.687 4.333 5.862-5.802c3.225-3.191 5.863-6.119 5.863-6.507 0-.88-18.098-7.993-31.462-12.366-5.521-1.806-10.038-3.758-10.038-4.337 0-1.439 22.18-20.197 27.213-23.013 1.424-.797 1.483-1.2.372-2.539-.727-.875-1.097-2.448-.823-3.496.388-1.482-.168-2.037-2.507-2.505-4.746-.949-4.784-.933-14.255 6.068zm29 .392c-1.1.439-3.309.83-4.909.869-3.183.077-8.762 3.942-22.852 15.832-4.819 4.066-8.526 7.773-8.239 8.238.288.466 1.98 1.158 3.761 1.54 2.698.578 22.562 7.835 34.366 12.555 3.045 1.218 3.304 1.096 9.765-4.613l6.638-5.864-7.015-3.02c-3.858-1.662-7.015-3.349-7.015-3.751 0-.401 3.825-3.508 8.5-6.905 4.675-3.396 8.5-6.517 8.5-6.935 0-.419-2.137-1.679-4.75-2.802-11.316-4.863-14.785-5.928-16.75-5.144zm212.5.981c0 .573 1.462 2.995 3.25 5.382l3.25 4.34 8 .67c7.944.666 24.797 3.1 29.325 4.237 2.314.581 2.332.533.861-2.311-1.643-3.178-9.555-8.698-13.982-9.754-3.973-.948-24.53-3.606-27.89-3.606-1.548 0-2.814.469-2.814 1.042zm-162.299 7.886c-10.779 6.572-24.81 16.293-26.56 18.402-1.93 2.325 3.746 4.192 8.238 2.71 1.923-.635 5.033-.866 6.911-.513 2.827.53 4.203.084 7.999-2.591 5.757-4.058 5.472-4.163 26.484 9.697 8.644 5.702 15.985 10.367 16.312 10.367.571 0 16.847-9.598 17.666-10.418.91-.909-26.203-20.378-40.904-29.372l-6.653-4.07-9.493 5.788zm208.952.535c-1.778 1.347-1.781 1.512-.068 4.412 1.372 2.322 2.943 3.291 6.848 4.223 2.787.665 8.857 2.488 13.489 4.051 4.632 1.562 8.663 2.6 8.957 2.305.294-.294-.568-2.555-1.917-5.024-2.398-4.39-2.688-4.564-13.189-7.959-12.221-3.951-11.661-3.871-14.12-2.008zm-62.653 3.242c-6.692.408-27.496 3.164-29.401 3.895-.756.29-1.646 1.885-1.978 3.545-.529 2.647.127 3.834 5.353 9.686 7.13 7.983 21.021 25.392 21.024 26.348.001.374-2.585 1.421-5.748 2.329-9.155 2.626-20.257 6.694-20.838 7.634-.758 1.227 11.66 14.84 14.079 15.433 1.105.271 5.609-.813 10.009-2.409 4.4-1.597 10.363-3.457 13.25-4.134 6.752-1.584 6.768-2.872.165-12.658-2.797-4.145-4.935-7.672-4.75-7.837.184-.165 3.847-.921 8.139-1.679l7.805-1.378-5.999-8.982c-4.151-6.215-5.624-9.191-4.781-9.662.669-.375 7.167-.828 14.44-1.009 7.273-.18 13.225-.475 13.227-.656.002-.181-2.742-4.569-6.099-9.75L390.815 72l-8.147.185c-4.481.102-10.622.336-13.647.52zm30.113 9.651l6.019 9.356 8.184.604c4.501.333 12.381 1.338 17.511 2.234 5.13.896 9.54 1.416 9.801 1.156.26-.26-1.441-4.333-3.781-9.05l-4.254-8.578-4.945-1.06C418.882 75.133 403.168 73 398.075 73h-4.96l6.019 9.356zm85.748-3.323c2.567 2.139 4.139 2.52 4.139 1.002 0-1.138-3.301-3.049-5.184-3.002-.753.019-.305.875 1.045 2zm-49.861.381c0 1.326 8.306 17.12 9.353 17.785.606.385 1.83.041 2.72-.765 1.431-1.295 1.926-1.223 4.273.623 3.095 2.435 3.573 5.943.809 5.943-1.015 0-2.66-.9-3.655-2-3.886-4.294-4.219-1.984-.902 6.244l3.324 8.243 10.289 3.114c5.659 1.712 11.077 3.451 12.039 3.863.962.412 1.75.413 1.75.001 0-1.852-4.54-15.875-8.136-25.131l-3.95-10.166-11.207-3.561c-13.041-4.144-16.707-5.064-16.707-4.193zm-111.75 1.225c-2.905 1.226-.88 4.988 7.322 13.608 4.715 4.954 8.203 9.328 7.75 9.719-.452.391-4.31 1.954-8.572 3.474-4.262 1.519-7.75 3.068-7.75 3.44 0 .373 2.92 3.572 6.489 7.109l6.49 6.432 4.26-1.664c2.344-.915 8.199-2.889 13.011-4.388 4.813-1.499 8.75-3.066 8.75-3.482 0-1.02-10.724-14.537-19.348-24.387-4.952-5.657-7.904-8.194-10.078-8.663a137.729 137.729 0 01-5.074-1.194c-1.1-.293-2.562-.294-3.25-.004zm-16.593 5.785c-5.803 2.412-7.401 3.347-6.542 3.826.246.138 4.775 4.47 10.064 9.628l9.617 9.379 7.352-2.809c4.044-1.545 7.715-3.114 8.159-3.485 1.156-.969-13.848-16.621-16.55-17.264a109.27 109.27 0 01-4.257-1.12c-1.103-.322-4.62.505-7.843 1.845zm-86.955 2.261c-2.613 1.859-3.572 3.167-3.119 4.25.819 1.957.826 3.156.029 5.065-.447 1.069.885 2.338 4.63 4.414 8.185 4.536 28.238 17.303 39.163 24.934 6.984 4.878 10.839 6.936 13.073 6.982 2.329.047 6.112-1.889 14.286-7.309 9.553-6.334 10.983-7.626 10.153-9.176-.531-.992-.699-2.867-.373-4.166.589-2.344-.491-3.482-13.703-14.447-1.938-1.609-4.059-.717-14.931 6.28l-6.591 4.241-9.957-6.794C240.031 94.53 226.053 86 224.594 86c-.603 0-2.795 1.208-4.871 2.685zm-33.245 6.346c-3.276 2.767-6.077 5.377-6.224 5.8-.146.423 2.817 2.139 6.586 3.814l6.852 3.044 3.694-3.384c3.462-3.173 3.599-3.519 2.191-5.529-.826-1.179-1.262-3.101-.968-4.271.402-1.601-.112-2.423-2.074-3.317-3.649-1.662-3.449-1.738-10.057 3.843zm104.293-1.734c-3.712 1.644-6.714 3.262-6.671 3.596.044.334 3.686 3.644 8.093 7.357 5.401 4.549 8.881 6.762 10.671 6.785 1.461.02 3.771.652 5.132 1.406 2.176 1.205 2.946 1.13 6.378-.621l3.903-1.991-4.878-4.995c-2.683-2.748-7.353-7.14-10.378-9.761l-5.5-4.765-6.75 2.989zm90 .415c-2.062.225-3.75.611-3.75.858s2.466 4.158 5.481 8.69l5.48 8.24 10.118-.319c9.785-.308 10.1-.389 9.558-2.463-.311-1.186.065-2.836.841-3.693 1.214-1.342 1.041-2.218-1.29-6.537l-2.691-4.988-9.999-.098c-5.499-.054-11.685.086-13.748.31zm27.735 4.084c1.429 2.625 4.778 6.651 7.443 8.946 4.5 3.876 5.461 4.25 13.493 5.248 4.756.591 10.955 1.512 13.775 2.047 2.82.535 5.253.847 5.407.693.154-.154-1.156-3.842-2.912-8.196-2.758-6.843-3.598-8.025-6.191-8.717-2.836-.756-18.284-3.031-28.806-4.241l-4.806-.553 2.597 4.773zm112.515 3.191c0 .544 1.705 2.064 3.788 3.379 7.613 4.806 20.314 18.041 31.626 32.957 6.372 8.402 11.586 16.041 11.586 16.975 0 .934 1.575 3.367 3.5 5.408 3.211 3.405 3.498 4.209 3.481 9.752l-.019 6.042-2.981-4.747c-1.64-2.611-2.981-5.156-2.981-5.655 0-.5-1.462-2.693-3.25-4.874-1.788-2.18-5.95-7.906-9.25-12.724-7.737-11.295-10.153-14.177-11.097-13.235-.421.421.587 2.221 2.241 4 5.713 6.145 9.367 11.544 8.805 13.008-.31.808.068 1.712.841 2.008.773.297 3.516 3.348 6.096 6.78 5.177 6.887 5.105 6.238 2.445 21.753-1.051 6.137-1.008 6.392 1.544 9.055 1.447 1.511 2.625 3.898 2.625 5.321 0 2.954-3.002 12.81-3.902 12.809-.329 0-4.509-4.213-9.29-9.363-4.78-5.149-12.181-12.236-16.445-15.749-4.264-3.513-9.05-7.625-10.635-9.137-3.498-3.338-4.974-3.5-4.548-.5.188 1.324 1.023 2.255 2.027 2.262 2.805.019 11.538 7.233 24.728 20.426 14.313 14.317 14.75 12.543-3.935 15.987-6.325 1.166-16.645 3.416-22.934 5-10.09 2.542-11.686 2.715-13.58 1.474-1.18-.773-2.447-1.104-2.816-.736-1.17 1.17-.724 4.14.859 5.723 1.631 1.631 4.471 1.158 4.471-.745 0-1.222 7.055-3.036 29.5-7.586 23.044-4.67 21.793-4.559 20.951-1.867-1.86 5.947-11.459 24.814-12.632 24.827-3.393.04-4.023 1.564-2.307 5.59.913 2.142 2.979 7.434 4.591 11.758l2.93 7.864-9.766 11.579c-5.372 6.368-17.143 19.154-26.157 28.413-9.015 9.258-16.172 17.052-15.906 17.319.783.782 35.662-36.001 47.307-49.89l4.906-5.852 2.848 8.352c2.835 8.316 9.735 32.436 9.735 34.031 0 .947-14.758 8.472-15.244 7.773-1.425-2.052-6.981-15.828-6.937-17.202.068-2.113-2.119-2.299-3.761-.32-.947 1.141-.79 1.643.776 2.481 1.08.578 3.411 4.547 5.179 8.82 1.769 4.273 3.353 7.92 3.521 8.105.167.185 4.103-1.444 8.747-3.62l8.441-3.956 1.013 4.425c1.287 5.623.503 6.456-8.782 9.329-3.894 1.206-6.87 2.402-6.613 2.659.257.257 3.504-.471 7.216-1.617 3.711-1.147 6.98-1.853 7.263-1.57.949.948-.577 1.635-6.967 3.135-5.713 1.341-6.622 1.333-9.041-.085-2.453-1.439-2.767-1.437-3.585.025-.872 1.557-17.009 7.439-20.41 7.439-.934 0-1.976.45-2.316 1-.964 1.56.792 1.225 10.5-2 9.675-3.214 12-3.596 12-1.969 0 1.826 3.057 2.271 4.298.627.716-.948 4.146-2.072 8.477-2.776 7.038-1.145 7.356-1.108 9.75 1.142 1.361 1.278 2.475 3.281 2.475 4.45 0 1.997-1.373 2.347-22.75 5.802-12.513 2.022-20.725 3.517-18.25 3.321 2.475-.196 12.736-1.587 22.802-3.091 10.066-1.505 18.46-2.571 18.653-2.371.194.201.672 2.953 1.064 6.115l.711 5.75-14.865.058c-8.176.031-16.665.383-18.865.78-2.2.398 4.663.543 15.25.322l19.25-.401v6.458l-14.25-.711c-7.837-.391-18.3-1.045-23.25-1.454-9.308-.768-11.943-.439-9.12 1.141.899.503 2.093.632 2.653.287 1.157-.715 42.494 1.61 43.883 2.468.498.308 1.313 4.058 1.81 8.333.862 7.406.808 7.796-1.16 8.252-3.006.695-43.181 7.229-49.066 7.979-6.379.813-7.754 1.267-7.091 2.341.552.893 6.261.135 36.997-4.912 21.938-3.603 21.594-3.595 21.594-.5 0 1.343-.452 2.72-1.004 3.061-.552.341-.737 1.681-.412 2.977.326 1.297.053 4.952-.605 8.122-1.177 5.672-1.155 5.796 1.412 7.665 3.262 2.376 3.311 4.726.161 7.685-1.347 1.265-2.732 3.594-3.08 5.175-.347 1.581-1.158 2.901-1.801 2.934-.644.032-3.421.434-6.171.892-3.162.527-5.459.46-6.25-.182-1.752-1.423-4.428.985-4.048 3.642.353 2.475 4.798 3.621 4.798 1.237 0-1.439 1.101-1.823 9.25-3.226 3.388-.583 3.75-.434 3.75 1.543 0 1.203 1.382 3.57 3.071 5.259 3.034 3.033 3.064 3.166 2.442 10.673-.646 7.79-3.111 15.468-4.66 14.511-1.451-.897-2.161 2.515-.852 4.093 1.6 1.927 2.999.993 2.999-2.002 0-1.31.435-2.651.966-2.979.606-.375.739 1.836.355 5.941-.527 5.648-.386 6.538 1.034 6.538 1.136 0 1.635.851 1.612 2.75l-.034 2.75-1.716-2.106c-5.194-6.37-21.041-27.037-22.982-29.97-1.245-1.883-2.708-3.424-3.25-3.424-2.039 0-.861 2.726 2.617 6.054 1.981 1.895 8.335 9.717 14.121 17.382l10.519 13.936-.685 7.564c-.377 4.16-1.073 9.589-1.546 12.064-.473 2.475-1.862 9.835-3.087 16.356-1.685 8.975-2.462 11.434-3.199 10.118-.535-.956-1.092-3.141-1.239-4.856-.147-1.715-.316-3.455-.376-3.868-.061-.413-.785-.75-1.61-.75-2.154 0-1.857 2.552.997 8.585 2.386 5.044 2.435 5.515 1.102 10.597-.803 3.057-1.634 4.68-1.957 3.818-.308-.825-1.986-5.775-3.729-11-3.998-11.99-7.743-21.561-13.888-35.5-2.668-6.05-5.123-12.238-5.457-13.75-.333-1.512-1.273-2.75-2.087-2.75-.815 0-1.481.287-1.481.637 0 .35 2.436 5.638 5.414 11.75 6.646 13.641 13.337 30.603 17.703 44.879l3.293 10.766-6.426 6.484c-3.534 3.566-6.777 6.484-7.205 6.484-.429 0-.779-2.025-.779-4.5 0-3.239-.401-4.5-1.433-4.5-2.227 0-2.988 3.877-1.157 5.9 3.13 3.459 1.962 5.78-6.16 12.242-4.263 3.391-11.48 8.65-16.039 11.687-7.555 5.034-8.428 5.383-9.869 3.942-1.44-1.441-1.431-1.971.105-5.994 1.469-3.847 2.902-5.206 11.144-10.578 5.203-3.391 9.751-6.927 10.109-7.859.515-1.342-1.067-11.979-3.958-26.613-.313-1.587 13.015-2.637 15.569-1.227 1.393.769 2.143.552 3.25-.941 3.159-4.262-.113-7.49-3.695-3.645-1.768 1.897-2.911 2.134-9.069 1.878l-7.046-.292-3.4-12.5c-1.871-6.875-4.74-16.637-6.376-21.693-1.636-5.055-2.975-10.288-2.975-11.627 0-1.339-.742-3.051-1.65-3.804-1.484-1.232-1.593-1.069-1.083 1.627.311 1.648 1.968 7.047 3.683 11.997 3.157 9.113 10.041 33.953 10.047 36.25.002.688-.663 1.25-1.478 1.25-.814 0-1.763 1.237-2.107 2.75-4.477 19.667-10.109 38.384-11.994 39.86-.78.611-1.416 2.411-1.413 4 .003 1.59-.739 4.967-1.649 7.505-1.435 4.004-2.365 4.963-7.027 7.25-2.955 1.449-5.701 2.635-6.101 2.635-.4 0-.659-13.612-.574-30.25.142-28.043.342-31.235 2.744-43.75 2.959-15.421 5.381-33.401 6.263-46.5.38-5.647 1.145-9.621 2.053-10.668 2.283-2.63 1.281-6.332-1.714-6.332-1.849 0-2.585.6-2.827 2.305-.179 1.268.095 2.843.609 3.5 1.898 2.424-5.198 60.407-7.71 62.998-.676.698-1.854-10.183-2.61-24.106-.258-4.757-1.138-6.34-2.393-4.309-.457.739-.244 3.615.478 6.471.716 2.828 1.749 10.766 2.297 17.641.991 12.434.978 12.569-2.356 25.5-3.333 12.929-9.653 32.304-15.123 46.362l-2.865 7.363-9.923-.67c-5.458-.369-10.386-.757-10.952-.863-.566-.105-3.738 5.357-7.049 12.138l-6.019 12.331-4.529-.661c-10.924-1.593-28.226-5.525-30.105-6.842-3.914-2.741-8.739.955-5.489 4.204 1.25 1.251 1.907 1.293 3.856.251 1.978-1.059 4.852-.766 18.243 1.862 8.742 1.716 16.06 3.285 16.262 3.487.462.462-.877 3.051-6.612 12.788L435.64 636l-5.56-.01c-6.789-.011-36.126-7.25-40.607-10.02-3.207-1.982-3.216-1.981-5.582.022-2.282 1.932-2.301 2.06-.517 3.443 1.341 1.04 2.533 1.178 4.311.503 1.802-.686 4.773-.294 11.146 1.468 4.78 1.322 10.185 2.714 12.012 3.094 6.077 1.263 2.688 1.456-6.877.39-6.22-.692-9.718-1.536-10.245-2.471-.44-.78-1.195-1.419-1.678-1.419-1.569 0-4.022 3.093-4.022 5.071 0 2.225 2.233 2.558 3.876.578.856-1.031 2.364-1.15 6.373-.504 2.888.466 11.697 1.258 19.576 1.759 7.879.502 14.568 1.155 14.864 1.452.4.399-10.785 17.661-13.323 20.559-1.202 1.374-51.539-13.949-54.534-16.6-2.351-2.081-6.332-1.336-6.332 1.185 0 1.645.709 2.023 4 2.128 2.2.07 10.122 2.154 17.604 4.631 7.482 2.477 18.507 5.753 24.5 7.28 5.993 1.528 11.262 3.094 11.709 3.482.447.387-2.028 4.238-5.5 8.557-7.273 9.047-29.605 32.422-30.975 32.422-1.522 0-26.598-9.355-37.588-14.023-7.419-3.151-10.25-4.835-10.25-6.098 0-2.002-2.921-3.23-5.412-2.274-2.631 1.009-1.595 4.832 1.412 5.205 1.375.171 7.45 2.385 13.5 4.919 6.05 2.535 16.755 6.715 23.789 9.289l12.788 4.68-3.788 3.415c-2.084 1.879-5.476 4.7-7.539 6.27-2.062 1.57-3.75 3.19-3.75 3.599 0 .654 9.509 3.578 22.775 7.004 4.091 1.057 4.211 1.195 2.798 3.214-1.036 1.478-1.192 2.644-.522 3.895.738 1.379.441 2.149-1.297 3.374-1.913 1.347-2.027 1.732-.754 2.544 1.007.642-2.143.961-9.574.972-11.764.016-17.307-1.212-34.926-7.74-13.368-4.952-33.485-14.445-35.809-16.898-2.321-2.45-7.085-3.137-8.285-1.195-.954 1.544 2.546 3.998 4.72 3.308.989-.314 5.947 1.565 11.553 4.378 12.236 6.14 19.923 9.431 33.321 14.268l10.5 3.791-9.781.051c-7.806.042-9.898-.251-10.357-1.448-.949-2.471-7.362-1.599-7.362 1.001 0 .973 4.074 1.432 16.75 1.886 9.865.353 21.272 1.429 27.75 2.617 6.05 1.11 11.985 2.013 13.188 2.007 1.541-.008 2.145.554 2.044 1.902-.19 2.511-11.377 9.087-15.46 9.087-4.792 0-18.759-2.85-30.603-6.245l-10.831-3.104-6.438 3.174c-3.541 1.746-6.992 3.171-7.669 3.166-4.777-.036-42.968-19.559-44.116-22.553-.394-1.027-1.559-1.462-3.359-1.255-3.71.427-3.652 3.214.076 3.641 1.558.179 5.158 1.702 8 3.386 6.555 3.883 29.066 15.027 33.675 16.671l3.493 1.246-3.5 1.894c-4.485 2.429-8.151 2.429-21.622.003-20.924-3.767-53.256-13.449-57.654-17.264-2.48-2.15-7.224-1.993-7.224.24 0 1.012 1.465 1.718 4.5 2.171 2.475.368 10.35 2.697 17.5 5.174 15.357 5.321 28.966 8.837 43.75 11.302 5.913.986 10.75 2.046 10.75 2.354 0 .988-18.812 6.999-21.904 6.999-3.641 0-4.911 1.607-2.001 2.53 1.202.382 3.706-.005 5.765-.89 12.053-5.182 23.604-8.777 26.514-8.253 1.719.31 8.526.808 15.126 1.107 17.399.788 28.654 2.487 28.291 4.271-.375 1.843-16.191 8.235-20.377 8.235-1.76 0-3.432.604-3.715 1.342-1.051 2.738-11.785 4.651-27.265 4.859l-14.934.201 12 .549 12 .549-4.714 1.37c-3.865 1.123-5.937 1.148-11.5.137-3.732-.678-7.236-1.756-7.786-2.396-.55-.639-1.675-1.125-2.5-1.08-3.053.167-15.77-3.775-24.5-7.594-10.31-4.511-25.589-13.344-26.788-15.488-.896-1.6-6.712-2.02-6.712-.484 0 1.182 3.306 3.035 5.415 3.035.85 0 3.917 1.515 6.816 3.367 6.339 4.05 19.437 10.649 26.117 13.158 2.666 1.002 5.077 2.419 5.357 3.148.28.73 1.923 1.338 3.652 1.351 1.729.012 6.488.912 10.575 2 4.088 1.087 8.341 1.976 9.45 1.976 2.673 0 .907 1.703-2.382 2.298-1.375.249-.475.213 2-.079 2.475-.293 10.8-.531 18.5-.531l14 .002-10.5-.602c-8.036-.46-9.796-.795-7.5-1.427a197.63 197.63 0 005.899-1.744c1.595-.504 5.42-.962 8.5-1.017 3.973-.07 4.874-.303 3.101-.799-2.241-.627-1.931-.89 3-2.547 3.025-1.016 10-2.437 15.5-3.158 8.021-1.05 8.714-1.254 3.5-1.026l-6.5.283 5.5-2.457c10.357-4.627 15.797-5.735 25.5-5.196l9 .5-5.5 1.796c-3.025.988-9.1 2.431-13.5 3.208-7.686 1.357-5.124 1.335 7-.06l4-.46-4 1.982c-2.2 1.09-4.788 1.993-5.75 2.008-.962.014-1.75.439-1.75.943s-1.238 1.406-2.75 2.004c-2.598 1.028-2.612 1.065-.25.678 3.112-.512 13.355-4.819 15.302-6.435.796-.66 3.866-2.059 6.822-3.109 2.957-1.05 4.701-1.949 3.876-1.997-1.315-.078-1.318-.204-.026-1.021.934-.59 1.703-.559 2.102.086.414.67 2.625.495 6.484-.512 11.894-3.107 5.902-.249-10.06 4.797-5.212 1.647-6.635 2.358-4.085 2.04 11.409-1.426 73.859-28.424 70.521-30.488-.909-.561-2.15-.351-3.43.583-4.115 3-12.051 7.439-13.315 7.448-2.23.016-.377-1.738 5.218-4.939 7.398-4.233 26.591-17.915 26.591-18.957 0-.468-3.038-.213-6.75.567-12.395 2.603-12.689 1.212-.75-3.541 6.05-2.409 14.084-5.925 17.852-7.814 3.769-1.89 7.06-3.229 7.312-2.976.253.252-.918 2.028-2.602 3.946-1.684 1.918-3.048 3.878-3.03 4.355.017.477 2.155-1.479 4.75-4.347 3.726-4.118 6.145-5.741 11.509-7.72 3.735-1.378 6.544-2.108 6.244-1.621-.301.487-.059 1.048.537 1.247.597.199-2.888 3.289-7.743 6.867-10.028 7.39-17.329 12.215-17.329 11.454 0-1.22 8.909-8.413 16.393-13.236 4.459-2.874 7.818-5.236 7.465-5.25-.893-.036-17.884 10.688-20.072 12.667-.982.889-1.786 1.28-1.786.868 0-.411-3.139 2.158-6.975 5.71-3.837 3.552-9.387 7.72-12.334 9.263-2.947 1.543-5.358 3.403-5.358 4.133 0 1.428 3.951-.631 15.667-8.167 3.575-2.299 8.975-5.759 12-7.689 8.179-5.218 25.482-18.415 38.233-29.161 13.302-11.21 35.851-33.65 33.814-33.65-.911 0-.405-1.061 1.408-2.953 1.556-1.624 3.272-2.861 3.814-2.75 2.775.571 35.59-43.961 42.22-57.297a2376.94 2376.94 0 013.559-7.135c.454-.899.576-2.586.272-3.75-.312-1.194-.081-2.115.532-2.115.597 0 .826.675.51 1.5-.317.825-.097 1.5.489 1.5 1.625 0 6.434-8.815 5.763-10.564-.325-.847-.218-1.309.238-1.027.901.557 14.277-26.566 18.695-37.909 5.412-13.892 8.577-23.916 8.113-25.691-.26-.995-.107-1.809.34-1.809s.571-.924.276-2.054c-.341-1.304.207-2.747 1.5-3.952 1.121-1.044 2.579-4.282 3.241-7.196 1.419-6.251 2.923-13.303 3.583-16.798.26-1.375.863-3.85 1.341-5.5.786-2.715 1.736-7.682 4.97-26 .583-3.3 1.528-11.85 2.101-19 .572-7.15 1.235-13.904 1.473-15.008.237-1.105.007-2.68-.511-3.5-.698-1.105-.956-.583-.99 2.008-.041 2.985-1.813 6.997-3.094 7.001-.215.001-.236-2.474-.047-5.5.219-3.52-.051-5.501-.75-5.501-.684 0-1.119 2.717-1.163 7.25-.047 4.865-.345 6.592-.906 5.25-.459-1.1-.582-9.312-.273-18.25.413-11.957.256-16.25-.595-16.25-.636 0-1.156.9-1.156 2 0 2.52-1.015 2.514-5.335-.035-3.74-2.207-3.9-2.746-5.262-17.7-.635-6.978-.574-7.267 1.719-8.124 2.114-.79 2.47-.542 3.206 2.235.456 1.718 1.243 3.551 1.75 4.074.507.522.922 2.491.922 4.375 0 3.272.134 3.398 3 2.825l3-.6.18 6.725.18 6.725.57-7.5c.606-7.98 2.164-9.59 3.178-3.283l.608 3.783.156-4.5c.085-2.475.409-5.445.719-6.601.333-1.238-.084-2.749-1.013-3.678-1.861-1.861-2.212-11.343-.442-11.933.825-.275.842-.914.061-2.333-.592-1.075-1.337-3.193-1.656-4.705-.772-3.664-2.443-3.492-3.207.33-.507 2.535-.989 2.979-2.725 2.513-1.16-.311-2.419-.572-2.799-.579-.379-.008-.866-1.701-1.082-3.764l-.392-3.75-.168 3.577c-.159 3.377-.335 3.552-3.168 3.136-2.778-.407-3.012-.764-3.167-4.826a864.016 864.016 0 00-.25-6.137c-.058-1.22.671-1.75 2.407-1.75 1.958 0 2.628.642 3.132 3l.641 3 .119-3.25c.121-3.332.815-3.706 4.87-2.619 1.411.378 2.59 1.773 3.16 3.736.89 3.074.909 3.082.998.442.049-1.48.54-2.969 1.09-3.309.55-.34 1-1.293 1-2.118s-.45-1.222-1-.882c-.55.34-1.035-.196-1.077-1.191-.042-.995-.709-3.609-1.482-5.809-1.156-3.291-1.334-3.468-1.006-1 .219 1.65.154 4.262-.145 5.804-.474 2.446-.942 2.765-3.667 2.5-3.838-.374-5.06-4.213-1.681-5.285 1.619-.515 2.033-1.438 1.94-4.336-.116-3.594-.134-3.611-.758-.695-.562 2.628-4.114 5.067-4.13 2.835-.003-.453-.444-3.502-.98-6.776-.738-4.507-.676-6.143.255-6.735 2.027-1.287 2.726-.932 2.831 1.438l.099 2.25.651-2.309c.773-2.747 2.508-3.033 2.997-.494.191.992.725 2.202 1.187 2.69.759.801.927-.459 1.107-8.268.03-1.309-.374-2.659-.898-3-.524-.34-1.675-1.969-2.558-3.619-1.821-3.403-2.122-2.512-.759 2.243.943 3.286-.402 5.723-1.858 3.367-1.554-2.514-3.316-14.262-2.293-15.285.697-.697 1.24-.035 1.703 2.076.375 1.705 1.143 3.099 1.708 3.099.587 0 .719-.751.308-1.75-1.188-2.885-1.833-5.79-1.15-5.175.352.316 1.308 2.341 2.124 4.5l1.484 3.925-.579-4c-.593-4.098-3.248-14.367-4.084-15.799-.712-1.218-3.298 1.324-3.226 3.171.043 1.102.356.901.968-.622 1.187-2.953 1.969-2.854 1.969.25 0 2.033-.491 2.5-2.631 2.5-2.439 0-2.59.25-2.073 3.438.38 2.343.096 3.822-.893 4.643-.798.662-1.618 1.027-1.821.812-.203-.216-1.702-5.209-3.329-11.096l-2.96-10.704 2.673-2.56c1.47-1.409 2.922-2.312 3.226-2.007.305.304.782-.317 1.06-1.38.724-2.772-1.701-2.116-4.274 1.155-1.168 1.485-2.466 2.699-2.886 2.699-.42 0-1.452-2.475-2.294-5.5l-1.531-5.5h2.867c2.998 0 3.618-1.412 1.756-4-.91-1.266-.991-1.227-.516.25.451 1.4-.03 1.75-2.405 1.75-1.7 0-2.976-.534-2.984-1.25-.011-.833-.339-.75-.985.25-.533.825-.976 1.025-.985.444-.023-1.637 4.597-7.499 5.332-6.764.359.359.653-.547.653-2.013 0-1.704.542-2.667 1.5-2.667.825 0 1.5-.476 1.5-1.057 0-1.431-13.059-30.056-14.572-31.943-.662-.825-2.561-4.215-4.221-7.533-9.424-18.844-25.562-44.159-30.007-47.072l-2.517-1.649 2.227 3.127c1.224 1.72 1.964 3.127 1.644 3.127-.32 0 .609 1.8 2.065 4s2.839 4 3.073 4c.234 0 .105-.52-.287-1.155-.457-.738-.273-.882.509-.398.672.415 1.015 1.297.761 1.958-.254.662.613 2.979 1.926 5.149 1.314 2.17 2.391 3.549 2.394 3.064.003-.485-.932-2.398-2.077-4.25-1.144-1.852-1.83-3.368-1.523-3.368 1.012 0 3.884 5.039 4.155 7.291.147 1.215.599 3.109 1.006 4.209 1.136 3.076-.477 1.221-9.973-11.472-4.721-6.309-8.583-12.46-8.583-13.668 0-1.208-.309-3.021-.687-4.028-.622-1.657-.515-1.691 1.121-.359 1.175.958.891.121-.813-2.389-1.441-2.125-2.621-4.371-2.621-4.991 0-1.512-9.087-11.839-9.795-11.131-.993.992-5.078-3.63-4.511-5.106.605-1.577-2.049-4.953-5.183-6.594-1.936-1.014-1.946-.98-.261.921.962 1.086 1.75 2.362 1.75 2.836 0 .473-4.676-3.612-10.392-9.079-11.831-11.316-22.096-20.44-22.997-20.44-.336 0-.611.444-.611.987zm-313.574.926c-3.452.399-6.09 1.446-8.25 3.272-1.747 1.477-3.176 2.9-3.176 3.163 0 .262 5.738 3.492 12.75 7.177 10.622 5.582 25.456 13.871 27.197 15.196.246.187-3.166 4.039-7.583 8.56-4.417 4.52-10.093 10.643-12.613 13.606-6.23 7.323-5.695 8.224 9.282 15.629l11.874 5.872 2.297-2.939c5.496-7.034 18.199-20.419 24.578-25.897 8.052-6.915 8.162-7.969 1.351-12.922-15.863-11.535-48.718-31.74-51.168-31.467-.806.09-3.748.427-6.539.75zm-35.9 7.061c-3.251 3.285-5.712 6.165-5.469 6.4.244.234 3.329 1.594 6.856 3.022l6.414 2.597 6.086-5.696c3.348-3.132 6.264-5.82 6.481-5.973.434-.307-12.666-6.324-13.769-6.324-.378 0-3.348 2.688-6.599 5.974zm-40.526 6.664c-9.332 10.78-9.256 11.197 2.757 15.135 5.415 1.775 10.502 3.227 11.305 3.227.803 0 3.367-2.391 5.699-5.313 2.332-2.923 5.59-6.607 7.24-8.188 1.649-1.58 2.999-3.368 2.999-3.974 0-1.139-19.346-8.581-22-8.462-.825.037-4.425 3.446-8 7.575zm55.832 1.011l-6.649 6.65-7.842-3.155c-4.312-1.735-8.122-3.152-8.465-3.149-.786.006-16.238 18.02-15.741 18.351.201.134 6.215 2.418 13.365 5.074 7.15 2.657 19.075 7.537 26.5 10.844 7.993 3.56 15.06 6.07 17.323 6.152 3.526.128 4.262-.367 9.479-6.388 3.111-3.591 8.501-9.513 11.978-13.161l6.322-6.633-5.121-3.151C222.905 124.947 194.741 110 193.929 110c-.235 0-3.419 2.992-7.076 6.649zm127.904-3.07c-2.283 1.239-2.588 1.83-1.75 3.395.558 1.042 1.014 2.958 1.014 4.257 0 1.427 1.536 3.863 3.875 6.146l3.874 3.784 5.376-2.701c2.956-1.485 5.575-2.884 5.819-3.108.815-.746-12.362-13.353-13.915-13.312-.841.022-2.773.715-4.293 1.539zm79.611-.666l-5.152.587 5.316 8.986c2.923 4.942 5.103 9.329 4.843 9.75-.259.42-1.739.764-3.288.764-1.549 0-4.165.27-5.813.599-2.789.558-2.947.824-2.273 3.814.399 1.768 2.979 7.01 5.733 11.651 3.735 6.29 5.489 8.376 6.898 8.199 1.039-.131 7.401-.79 14.139-1.466 14.014-1.406 13.758-1.138 9.75-10.201-1.375-3.109-2.5-5.835-2.5-6.058 0-.223 1.077-.548 2.394-.722l2.394-.316-4.263-9.467c-3.302-7.332-5.03-9.951-7.662-11.617-1.869-1.183-4.008-2.886-4.753-3.783-1.416-1.706-5.478-1.892-15.763-.72zm-14.347 1.433c-3.575.517-6.675 1.089-6.889 1.27-.214.181 1.811 3.702 4.5 7.824 3.564 5.465 5.621 7.659 7.59 8.097 2.832.63 11.799-.368 11.799-1.313 0-.881-9.124-16.193-9.845-16.521-.36-.164-3.58.125-7.155.643zm41 .595c0 1.068-.416 2.198-.925 2.513-.508.314 1.143 5.274 3.67 11.023l4.595 10.451 4.58.549c2.519.301 9.042 1.218 14.496 2.036 5.453.819 10.07 1.334 10.259 1.145.189-.189-1.467-6.009-3.681-12.933l-4.024-12.59-5.235-1.045c-8.205-1.64-17.973-3.074-20.985-3.082-2.058-.006-2.75.48-2.75 1.933zm124.5 3.059c2.148 2.2 4.131 4 4.406 4 .275 0-1.258-1.8-3.406-4s-4.131-4-4.406-4c-.275 0 1.258 1.8 3.406 4zm-92.951 2.114c3.386 10.492 7.306 24.364 6.978 24.692-.221.221-4.592-.3-9.714-1.157-13.101-2.192-19.813-2.847-19.813-1.933 0 .431 1.001 3.577 2.225 6.99l2.226 6.206 5.524.578c5.149.538 18.784 2.784 25.424 4.187 1.698.359 2.659.226 2.32-.322-.318-.515.089-2.314.905-3.999 1.296-2.675 1.305-3.838.07-9.183-.778-3.366-1.214-6.319-.97-6.564.244-.244 2.952.419 6.016 1.474 3.065 1.054 5.683 1.917 5.818 1.917.844 0-3.792-17.526-4.801-18.15-1.344-.831-15.428-5.345-20.118-6.449-2.664-.627-2.807-.509-2.09 1.713zM73.867 130.762c-4.21 5.906-8.632 12.408-9.827 14.45l-2.17 3.712 2.325.493c1.28.271 5.701 1.015 9.826 1.652 4.125.637 11.325 1.973 16 2.968 6.485 1.38 8.763 1.531 9.608.636.609-.645 4.306-5.923 8.215-11.73 6.254-9.288 7.014-10.91 6.328-13.5-.758-2.863-1.157-3.029-14.715-6.121-7.665-1.748-14.836-3.205-15.936-3.237-1.43-.043-4.179 2.996-9.654 10.677zm446.154-9.809c0 .525 1.164 1.762 2.588 2.75 5.356 3.72 22.116 17.398 27.299 22.281 2.964 2.791 5.562 4.901 5.774 4.688.628-.628-13.198-13.306-22.681-20.796-4.836-3.82-9.046-7.605-9.355-8.411-.618-1.611-3.625-2.036-3.625-.512zm-230.307 7.058c-10.466 6.912-10.626 7.076-10.021 10.257.338 1.777.663 3.273.722 3.323 2.993 2.555 10.976 8.409 11.467 8.409.375 0 3.822-2.293 7.66-5.096 3.839-2.803 10.084-6.945 13.879-9.203l6.9-4.107-4.009-3.547c-2.816-2.492-5.067-3.599-7.568-3.72-1.957-.095-4.647-.886-5.976-1.757-2.342-1.535-2.749-1.365-13.054 5.441zm262.69 2.489c2.61 3.3 8.595 11.287 13.302 17.75 4.706 6.463 8.68 11.75 8.83 11.75.825 0-1.863-8.727-3.115-10.11-.816-.902-1.353-2.034-1.193-2.515.369-1.109-6.362-9.554-7.059-8.856-.285.285 1.028 2.227 2.917 4.315 1.889 2.089.653.864-2.748-2.722-3.401-3.585-5.993-6.827-5.761-7.202.232-.376-.248-1.239-1.067-1.919-.819-.68-1.489-.868-1.489-.417 0 .45-1.656-.732-3.681-2.628-3.359-3.145-3.266-2.922 1.064 2.554zm-224.022-.703l-5.14 2.703 7.769 8.332 7.768 8.332 4.121-2.102c5.758-2.938 5.436-5.133-1.959-13.326-3.343-3.705-6.381-6.715-6.75-6.689-.368.026-2.983 1.264-5.809 2.75zm-208.361 1.502c-1.375.639-3.055 1.846-3.733 2.682-2.794 3.443-14.267 20.859-14.266 21.656 0 .475 4.516 2.044 10.034 3.488 9.813 2.566 10.111 2.585 13.516.849 3.834-1.955 19.162-22.705 17.744-24.023-1.014-.942-17.637-5.973-19.44-5.883-.745.037-2.48.591-3.855 1.231zm194.5 5.934c-7.404 4.581-20.511 14-20.425 14.678.042.324 3.956 3.749 8.698 7.61l8.622 7.022 12.732-8.468 12.731-8.467-7.035-7.804c-3.869-4.292-7.775-7.773-8.679-7.734-.904.038-3.894 1.461-6.644 3.163zm55.5 1.208c-4.125 1.27-9.2 3.022-11.279 3.895-3.416 1.434-3.714 1.854-3.102 4.375.371 1.534 3.825 6.759 7.674 11.611 5.733 7.226 7.379 8.72 9.103 8.258 1.157-.311 3.04-.825 4.184-1.144 1.742-.486 3.032.855 7.936 8.242 3.221 4.852 5.964 8.976 6.095 9.164.132.188 1.793-.22 3.692-.907 3.278-1.185 3.44-1.466 3.184-5.53-.162-2.577-1.534-6.491-3.445-9.831-3.278-5.73-3.288-7.574-.042-7.574 1.035 0 2.125-.393 2.421-.873.786-1.271-9.051-17.238-12.223-19.841-3.348-2.747-4.823-2.731-14.198.155zm-230.9 8.625c-8.065 11.27-8.695 12.448-7.168 13.392.587.363 1.068 1.462 1.068 2.442 0 1.396 2.331 2.494 10.75 5.062 5.912 1.804 18.714 6.15 28.448 9.659 9.733 3.508 17.909 6.379 18.168 6.379.259 0 1.5-1.687 2.757-3.75 1.258-2.062 4.22-6.428 6.582-9.7 2.863-3.967 3.962-6.283 3.295-6.95-.55-.55-1-1.753-1-2.674 0-1.171-3.386-3.178-11.25-6.67-10.103-4.487-37.011-15.079-42.337-16.666-1.761-.524-3.219.959-9.313 9.476zm120.718 5.167c-6.319 6.197-13.671 13.889-16.339 17.093-5.327 6.396-5.419 5.948 2.021 9.849 2.2 1.154 9.174 5.062 15.497 8.686 9.6 5.503 12.352 6.628 16.678 6.824l5.182.235 8.125-8.901 8.126-8.9-9.804-7.27a5841.523 5841.523 0 00-10.263-7.601c-.252-.183 2.19-2.701 5.427-5.596l5.885-5.263-5.926-4.546c-3.26-2.5-7.546-4.845-9.524-5.211-3.518-.651-3.852-.416-15.085 10.601zm166.57-5.704c1.237 3.04 3.31 6.271 4.606 7.18 2.249 1.575 2.323 1.562 1.585-.279-.425-1.061-1.692-4.293-2.815-7.18-1.408-3.621-2.598-5.25-3.834-5.25-1.667 0-1.636.384.458 5.529zm44.075 1.221c.668 3.162 2.413 7.5 3.876 9.64 1.464 2.139 2.661 4.287 2.661 4.774 0 .994 5.028 3.141 5.724 2.445.538-.538-1.712-15.253-2.778-18.172-.456-1.245-2.324-2.533-4.716-3.25-6.071-1.819-6.108-1.784-4.767 4.563zm-126.463.815c-1.375.753-2.5 1.754-2.5 2.225 0 .471 4.049 5.601 8.997 11.4l8.997 10.544 4.503-2.097c2.477-1.153 4.65-2.178 4.83-2.278.181-.099-2.733-4.088-6.475-8.865-4.149-5.296-8.26-9.427-10.538-10.589-4.273-2.18-4.441-2.187-7.814-.34zm-13.601 7.757c-8.022 4.945-16.303 10.901-16.36 11.766-.021.323 3.817 4.097 8.529 8.387l8.569 7.8 2.931-2.137 6.009-4.383 3.076-2.244 4.118 4.494c2.265 2.472 6.724 7.317 9.909 10.766l5.792 6.272 3.778-2.385c2.078-1.312 6.247-3.626 9.264-5.142 3.017-1.516 5.651-2.905 5.853-3.086.313-.282-8.713-13.36-10.876-15.758-.412-.456-3.141.384-6.066 1.866l-5.318 2.695-1.895-2.367C351.166 164.664 339.539 152 338.575 152c-.63 0-4.3 1.945-8.155 4.322zm-43.842 1.197c-2.718 2.436-4.743 4.618-4.5 4.85.77.733 16.384 12.19 17.731 13.011 1.278.779 9.712-5.881 9.712-7.669 0-.853-16.575-14.741-17.5-14.663-.275.023-2.724 2.035-5.443 4.471zm122.943.614c-3.85.485-7.564 1.089-8.253 1.344-.862.318.353 3.468 3.894 10.095 2.892 5.413 4.729 9.916 4.194 10.28-1.97 1.34.134 11.58 3.852 18.744l3.683 7.096 7.815-1.343c4.298-.739 10.442-1.607 13.653-1.929 6.887-.691 6.88 1.216.073-19.795-2.472-7.631-4.304-14.065-4.071-14.298.233-.233 2.815 6.91 5.738 15.875 5.186 15.902 6.357 18.697 7.396 17.657.993-.993-11.299-40.68-13.584-43.859-.94-1.307-1.014-1.295-.577.091.276.875.085 2.225-.424 3-.748 1.14-1.39.884-3.359-1.341-2.116-2.391-3.127-2.733-7.732-2.624-2.914.07-8.448.523-12.298 1.007zm-14.75 2.556c-.962.252-1.75.682-1.75.956 0 1.025 5.46 9.869 6.31 10.221.486.201 2.362 1.663 4.169 3.25 1.807 1.586 3.596 2.884 3.975 2.884.38 0-1.473-4.05-4.118-9-2.645-4.95-5.265-8.948-5.823-8.884-.557.064-1.801.322-2.763.573zm-186.174 4.179c-2.272.491-4.36 2.708-9.377 9.955-3.582 5.173-6.063 9.686-5.576 10.14.482.45 6.846 3.296 14.141 6.324l13.264 5.505 6.601-9.646c3.631-5.305 6.769-10.096 6.974-10.646.359-.964-20.626-12.622-22.287-12.382-.449.065-2.132.403-3.74.75zm165.678 3.45c-2.243 1.246-2.239 1.258 2.808 8.215 2.779 3.832 5.411 7.581 5.849 8.331.649 1.113 1.237 1.134 3.192.114 1.319-.687 2.563-1.391 2.766-1.566.658-.565-10.338-16.397-11.369-16.369-.55.015-2.011.589-3.246 1.275zm202.412 3.853c-.575 4.856-.318 5.738 3.729 12.773 2.39 4.156 5.826 10.481 7.635 14.056l3.288 6.5 1.296-3c.713-1.65 1.316-4.036 1.341-5.303.04-2.067-8.804-18.553-14.468-26.97l-2.203-3.273-.618 5.217zm-8.627 6.423c-1.277 9.299-1.254 9.635.795 11.685 1.161 1.16 2.417 1.803 2.793 1.428.375-.376 1.227-3.584 1.894-7.131 1.154-6.144 1.096-6.652-1.239-10.762-1.347-2.373-2.557-4.422-2.689-4.554-.132-.132-.831 4.068-1.554 9.334zm-261.328-4.637c-4.086 3.84-4.151 4.001-2.211 5.394 1.1.79 5.15 3.957 9 7.037 3.85 3.081 7.45 5.585 8 5.565.55-.02 2.7-1.539 4.778-3.375l3.778-3.339-8.392-7.619c-4.616-4.191-8.922-7.62-9.567-7.62-.646 0-3.07 1.781-5.386 3.957zm277.289 1.305c0 .303 2.294 4.448 5.098 9.212 5.233 8.891 7.787 11.143 3.825 3.373-2.109-4.136-8.923-13.747-8.923-12.585zm-245.834 6.405l-5.268 3.688 8.189 8.232c9.225 9.274 11.786 10.364 16.656 7.092 1.784-1.198 3.246-2.534 3.25-2.969.006-.664-6.141-7.625-15.427-17.47l-2.132-2.261-5.268 3.688zm-45.685 5.822l-7.707 8.489 3.113 3.546c1.712 1.95 3.113 4.141 3.113 4.869 0 .728 2.539 3.01 5.642 5.07l5.642 3.746 5.589-6.354c3.073-3.495 7.074-7.878 8.891-9.738 1.816-1.861 3.175-3.507 3.019-3.658C317.597 191.323 301.563 179 300.99 179c-.43 0-4.249 3.82-8.488 8.489zm282.977-3.884a915.47 915.47 0 01-1.355 5.895c-.893 3.807.495 7.773 4.817 13.761 2.899 4.019 3.925 4.739 6.75 4.739 4.755 0 4.412-2.276-2.252-14.914-6.701-12.708-7.12-13.206-7.96-9.481zm-181.159.408c-2.135.86-1.985 1.244 4.928 12.687 3.92 6.49 7.2 11.915 7.288 12.055.255.403 6.897-1.949 7.809-2.766 1.267-1.134-6.967-16.741-9.208-17.452-1.065-.338-2.663-1.722-3.55-3.076-1.682-2.568-3.558-2.941-7.267-1.448zM596.483 186c.376 1.375.725 3.043.777 3.706.052.663.373 1.034.714.823.34-.21 3.078 4.352 6.083 10.138 5.402 10.401 6.564 12.066 7.658 10.972.589-.588-9.269-18.617-13.472-24.639-2.048-2.934-2.332-3.096-1.76-1zm-209.712.679c-.962.257-1.75.623-1.75.812 0 .835 13.954 21.226 15.276 22.323 1.402 1.163 4.751.685 4.7-.671-.013-.354-3.054-5.587-6.757-11.631-6.529-10.655-7.765-11.823-11.469-10.833zm-59.679 3.876l-3.935 3.555 7.682 6.603c4.225 3.631 8.857 7.681 10.292 8.998l2.61 2.395 3.14-2.642c1.727-1.453 3.14-3.11 3.14-3.682 0-1.229-16.988-18.782-18.178-18.782-.449 0-2.587 1.6-4.751 3.555zm47.354 2.321c-4.909 2.584-8.925 5.218-8.925 5.852 0 1.739 11.567 15.272 13.053 15.272.712 0 2.613 1.111 4.227 2.468l2.933 2.468 5.897-3.218c5.017-2.737 5.845-3.582 5.55-5.652-.301-2.112-7.116-13.178-12.148-19.728l-1.661-2.162-8.926 4.7zm222.825.62c-1.82 2.067-1.597 3.148 1.934 9.382 3.333 5.885 4.451 7.081 6.639 7.107.878.01.293-1.787-1.736-5.332-1.682-2.941-2.728-5.713-2.323-6.161.405-.447.097-.442-.684.012-1.055.612-1.257.4-.786-.828.366-.954.174-1.551-.455-1.414-.599.131-1.316-.387-1.594-1.151-.306-.844-.066-1.118.614-.698.712.44.902.127.523-.861-.705-1.837-.567-1.834-2.132-.056zM569.804 204l-1.599 5 4.658-.07c8.056-.122 8.589-.791 4.525-5.68-1.943-2.338-4.085-4.25-4.759-4.25-.674 0-1.946 2.25-2.825 5zm24.428-.934c-1.103 4.348-1.199 4.221 4.069 5.377l2.781.61-2.547-5.026c-1.401-2.765-2.71-5.027-2.909-5.027-.199 0-.826 1.83-1.394 4.066zm-234.826-.88c-1.587 1.202-3.08 2.335-3.318 2.517-.239.182.099.863.75 1.514.65.651 1.183 1.89 1.183 2.755s3.712 5.256 8.25 9.759c8.18 8.117 8.27 8.172 10.539 6.444 2.209-1.681 2.235-1.874.739-5.454-.853-2.041-1.433-3.922-1.289-4.18.372-.667-12.254-15.541-13.192-15.541-.428 0-2.075.984-3.662 2.186zm-10.734 8.656l-2.626 2.741 6.238 5.979c13.19 12.643 14.799 13.545 18.573 10.416l2.336-1.938-7.336-8.112c-4.035-4.462-8.961-8.948-10.947-9.969l-3.612-1.858-2.626 2.741zm63.349-1.487c-1.925.683-3.416 1.697-3.314 2.252.103.556 4.49 9.084 9.749 18.952 5.26 9.867 9.703 18.359 9.874 18.871.171.511 1.069.639 1.995.284 3.459-1.328 1.796-8.278-6.094-25.464-4.102-8.937-7.741-16.225-8.085-16.194-.344.031-2.2.616-4.125 1.299zm162 1.558c-3.025.323-5.434.958-5.354 1.412.37 2.091 10.054 14.565 11.654 15.011 1.385.387 2.407-.734 4.426-4.849l2.624-5.352-2.425-3.561c-1.334-1.958-3.1-3.49-3.925-3.404-.825.086-3.975.42-7 .743zm11-.104c0 .445.616 1.651 1.368 2.68 1.325 1.812 1.405 1.805 2.5-.243 1.583-2.957 1.461-3.246-1.368-3.246-1.375 0-2.5.364-2.5.809zm10.626 1.941c1.153 4.776 6.589 16.235 7.449 15.703.454-.28 1.313.404 1.91 1.519 1.431 2.673 5.015 2.706 5.015.046 0-1.09-1.739-5.747-3.865-10.348-2.906-6.289-4.458-8.525-6.25-9.004-4.347-1.164-4.97-.859-4.259 2.084zm8.427-.468c.127 2.929 9.561 20.231 11.197 20.537 2.834.53 2.125-2.842-2.5-11.887-2.797-5.47-5.019-8.577-6.5-9.089-1.535-.531-2.233-.391-2.197.439zm-13.914 2.312c-1.055 2.317-.707 3.327 3.447 9.992 4.289 6.882 7.414 9.398 7.414 5.969 0-2.207-6.469-15.89-8.178-17.297-1.255-1.034-1.705-.81-2.683 1.336zM560.848 226c-4.479 9.497-5.312 11.985-3.993 11.927.916-.04 5.941-.848 11.166-1.795 9.371-1.699 9.504-1.763 9.797-4.712.228-2.286-.929-4.686-4.917-10.204-2.868-3.969-5.48-7.216-5.804-7.216-.324 0-3.136 5.4-6.249 12zm54.109-4.127c2.235 4.446 4.064 8.712 4.064 9.482 0 1.582 2.767 4.212 3.577 3.401.833-.833-8.924-20.162-10.391-20.585-.743-.215.452 3.132 2.75 7.702zm-29.334 1.925c-3.009 5.939-3.511 10.765-1.02 9.809.87-.334 3.232-.614 5.25-.622 6.535-.028 6.829-1.022 2.375-8.027l-4.002-6.295-2.603 5.135zm5.148 10.941c-3.163.198-5.75.61-5.75.914 0 .924 5.464 10.345 6 10.344.275 0 1.962-2.147 3.75-4.77 3.095-4.54 4.127-7.448 2.5-7.038-.413.104-3.337.352-6.5.55zm10.052.354c-.454 1.362 5.307 12.887 6.448 12.899 1.188.013.911-1.256-1.644-7.537-2.368-5.819-4.032-7.677-4.804-5.362zm4.198-.176c0 2.148 4.282 10.473 4.742 9.22.275-.749-.486-3.337-1.691-5.75-2.14-4.285-3.051-5.321-3.051-3.47zm4.1 3.279c1.97 3.862 2.246 4.051 3.466 2.382 1.114-1.523 1.077-2.194-.235-4.195-.859-1.311-2.418-2.383-3.466-2.383-1.837 0-1.828.152.235 4.196zm8.1-1.996c-.66.66-1.2 1.759-1.2 2.443 0 2.605 5.267 15.31 6.126 14.779.497-.307 1.821-2.358 2.943-4.558 1.739-3.408 1.873-4.509.906-7.44-.624-1.892-2.042-3.925-3.15-4.518-1.805-.965-1.949-.835-1.383 1.258.546 2.023.421 1.968-.937-.414-1.807-3.167-1.726-3.129-3.305-1.55zm-44.642 9.254l-6.592 9.454 3.385 5.296c4.422 6.918 12.614 23.416 16.123 32.467 2.563 6.612 2.945 7.094 4.903 6.182 1.168-.544 2.973-2.812 4.012-5.04l1.889-4.05-4.495-10.304-4.494-10.303 2.078-2.078 2.077-2.078h-2.315c-1.475 0-2.506.726-2.839 2-.288 1.1-1.074 2-1.746 2-1.33 0-3.954-4.923-3.087-5.791.293-.293 3.26-.572 6.594-.621l6.061-.088 5.987-6.194 5.986-6.195-3.163-6.266-3.163-6.266-2.13 2.55a191.302 191.302 0 00-4.349 5.46c-2.531 3.318-2.592 3.277-7.505-4.998-4.019-6.77-5.482-6.232-13.217 4.863zm-8.058-6.735c-4.4.835-8.141 1.643-8.313 1.796-.172.153 1.513 2.687 3.746 5.631 2.232 2.945 4.06 5.692 4.063 6.104.011 2.016 2.055.244 5.191-4.5 7.719-11.678 7.274-10.762 5.178-10.649-1.026.055-5.465.783-9.865 1.618zm-13.71 2.824c-.509.509 6.311 18.892 7.421 20.001.28.281 1.748-1.113 3.262-3.097l2.751-3.607-3.273-4.67c-5.812-8.293-8.344-10.443-10.161-8.627zm62.578 1.207c-.873 1.362-.696 2.591.797 5.541 1.765 3.489 5.207 7.709 6.288 7.709.249 0-.761-3.375-2.244-7.5-1.484-4.125-2.928-7.5-3.209-7.5-.28 0-1.015.787-1.632 1.75zm9.205.25c.368 1.375 1.086 3.175 1.596 4 .644 1.042.723.737.258-1-.368-1.375-1.086-3.175-1.596-4-.644-1.042-.723-.737-.258 1zm-11.989 3.863c-.987 1.598.088 4.53 2.442 6.66 2.562 2.319 2.599.308.081-4.419-1.139-2.137-2.073-2.967-2.523-2.241zm-2.569 3.328c-.008.93.435 1.969.985 2.309 1.266.782 1.266-.542 0-2.5-.835-1.293-.971-1.266-.985.191zm20.985-.191c0 .55.477 1 1.059 1s.781.45.441 1-.093 1 .548 1c.698 0 .898.703.5 1.75-.486 1.276-.367 1.453.441.652.809-.802.782-1.811-.102-3.75-1.194-2.621-2.887-3.59-2.887-1.652zm-171.782 3.5c.01 1.1.362 3.35.782 5 .686 2.695.765 2.746.782.5.01-1.375-.342-3.625-.782-5-.627-1.959-.797-2.067-.782-.5zm22.014 1.5c0 1.925.206 2.712.457 1.75.252-.963.252-2.537 0-3.5-.251-.963-.457-.175-.457 1.75zm123.008 1.256c-2.332 2.376-4.241 4.528-4.241 4.782-.001.254 2.474.308 5.5.119 5.234-.325 5.501-.474 5.501-3.058 0-1.494-.567-3.492-1.26-4.44-1.147-1.568-1.642-1.335-5.5 2.597zm30.324 1.451c-.542 1.425-.428 1.54.56.56.684-.679.991-1.486.683-1.793-.308-.308-.867.247-1.243 1.233zm-70.951 2.734l-2.625 3.441 4.884 16.309c2.686 8.97 5.476 18.784 6.2 21.809.724 3.025 1.401 5.635 1.505 5.8.104.165 3.582-1.38 7.729-3.432l7.54-3.731-2.317-6.068C579.212 280.593 566.976 257 565.065 257c-.444 0-1.988 1.548-3.431 3.441zm71.951.266c-.542 1.425-.428 1.54.56.56.684-.679.991-1.486.683-1.793-.308-.308-.867.247-1.243 1.233zM478.521 262c-.34.55-.141 1 .441 1s1.059-.45 1.059-1-.198-1-.441-1-.719.45-1.059 1zm-19.282 2c-.01 1.375.342 3.625.782 5 .627 1.959.797 2.067.782.5-.01-1.1-.362-3.35-.782-5-.686-2.695-.765-2.746-.782-.5zm142.52-.553c-5.996.867-8.325 1.686-10.239 3.6l-2.478 2.478 3.83 8.987c2.106 4.944 4.09 9.718 4.409 10.609 1.131 3.17 5.338 3.108 10.645-.157l4.97-3.059-2.561-6.702c-3.646-9.542-3.651-9.588-1.376-11.647 2.085-1.887 2.688-4.108 1.312-4.834-.413-.218-4.243.108-8.512.725zm20.529 2.303c.728 5.143 2.537 9.489 3.66 8.795.917-.567-2.569-12.545-3.65-12.545-.297 0-.302 1.688-.01 3.75zm-12.43 2.842c-1.455 1.455-1.342 2.239 1.327 9.171 1.605 4.168 2.706 8.134 2.446 8.812-.261.678-2.754 2.514-5.541 4.079-3.182 1.788-5.067 3.521-5.068 4.662-.001.998-.443 2.641-.983 3.65-1.223 2.286 1.032 9.429 3.081 9.762.771.125 5.451-1.461 10.401-3.524 10.518-4.384 10.164-2.932 4.803-19.704-3.326-10.409-6.945-18.5-8.273-18.5-.331 0-1.318.716-2.193 1.592zm8.621.719c-.335 1.335.923 7.267 2.981 14.058 1.959 6.461 3.568 12.284 3.576 12.939.009.656.417 1.826.908 2.602.751 1.185 1.395 1.201 4.055.099 3.559-1.474 3.573-.587-.226-14.754-1.715-6.398-2.555-8.135-3.749-7.756-1.113.353-2.028-.892-3.312-4.505-1.925-5.422-3.323-6.308-4.233-2.683zm18.106.396c-.542 1.425-.428 1.54.56.56.684-.679.991-1.486.683-1.793-.308-.308-.867.247-1.243 1.233zM452.164 271.5c.01 2.086 2.659 9.75 2.766 8 .033-.55-.577-3.025-1.357-5.5s-1.414-3.6-1.409-2.5zm26.157 3.5c0 3.025.187 4.262.416 2.75.229-1.512.229-3.988 0-5.5s-.416-.275-.416 2.75zm-17.068 1c0 1.925.206 2.712.457 1.75.252-.962.252-2.538 0-3.5-.251-.962-.457-.175-.457 1.75zm177.332-.293c-.542 1.425-.428 1.54.56.56.684-.679.991-1.486.683-1.793-.308-.308-.867.247-1.243 1.233zM462.179 282c0 1.375.227 1.938.504 1.25.278-.687.278-1.812 0-2.5-.277-.687-.504-.125-.504 1.25zm-23.068.5c0 .55 1.085 3.025 2.41 5.5 1.325 2.475 2.41 4.05 2.41 3.5 0-.55-1.085-3.025-2.41-5.5-1.325-2.475-2.41-4.05-2.41-3.5zm8.941 0c0 .55.436 1.675.969 2.5.533.825.969 1.05.969.5s-.436-1.675-.969-2.5c-.533-.825-.969-1.05-.969-.5zm7.048 1.083c.048 1.165.285 1.402.604.605.289-.722.253-1.585-.079-1.917-.332-.332-.568.258-.525 1.312zM477.253 287c0 1.925.206 2.712.457 1.75.252-.962.252-2.538 0-3.5-.251-.962-.457-.175-.457 1.75zm-27.201 1.5c0 .55.436 1.675.969 2.5.533.825.969 1.05.969.5s-.436-1.675-.969-2.5c-.533-.825-.969-1.05-.969-.5zm188.123 3.052c.191.98.951 1.984 1.692 2.23.86.287 1.22-.194 1-1.334-.191-.98-.951-1.984-1.692-2.23-.86-.287-1.22.194-1 1.334zM452.107 294c-.031.825.381 2.175.914 3 1.181 1.828 1.181.249 0-2.5-.567-1.319-.878-1.489-.914-.5zm12.072 3c0 1.375.227 1.938.504 1.25.278-.687.278-1.812 0-2.5-.277-.687-.504-.125-.504 1.25zm172.498.808c-1.541.313-1.736.977-1.189 4.033 1.353 7.554 2.649 11.159 4.013 11.159 2.369 0 2.486-1.392.721-8.609-1.415-5.788-2.011-6.894-3.545-6.583zm-46.021 2.469c-1.57 1.148-1.616 1.764-.46 6.089 1.554 5.807 3.263 6.926 8.248 5.396 3.594-1.103 3.704-1.272 3.062-4.695-.851-4.536-1.21-5.067-3.422-5.067-1 0-2.378-.675-3.063-1.5-1.519-1.83-2.124-1.861-4.365-.223zm38.865.901c-1.1.614-2.154 1.242-2.343 1.395-.188.153.387 2.787 1.278 5.853 1.343 4.617 2.002 5.571 3.843 5.559 4.112-.029 4.5-1.033 2.991-7.735-1.432-6.361-2.221-7.054-5.769-5.072zm-50.254 4.644l-7.254 3.619.636 3.529c1.255 6.972 1.531 7.122 8.788 4.763 7.849-2.552 9.399-4.676 7.576-10.377-.679-2.121-1.517-4.148-1.863-4.505-.346-.356-3.893.98-7.883 2.971zm35.145 1.484l-10.109 3.969.932 3.669.931 3.669 9.47-1.682c5.208-.926 9.716-1.929 10.017-2.229.926-.927.741-9.736-.223-10.574-.5-.435-5.458.996-11.018 3.178zm-153.409-.806c-.097.55-.102 2.631-.011 4.625.143 3.155-.182 3.711-2.51 4.295-1.945.489-3.067.182-4.119-1.124-1.361-1.691-1.412-1.672-.868.322.815 2.99-3.846 6.145-6.202 4.199-1.437-1.188-1.456-1.097-.192.933 1.664 2.672 2.237 2.744 5.392.677 2.312-1.515 2.46-1.46 3.99 1.5 2.036 3.937 2.739 3.949 1.37.022-1.193-3.422-1.185-3.438 1.889-4.383 1.978-.608 2.347-.183 3.369 3.876 1.068 4.243 3.14 6.687 2.38 2.808-1.387-7.077-1.379-8.25.055-8.25.811 0 1.475-.45 1.475-1s-.637-1-1.417-1c-.779 0-2.093-1.913-2.921-4.25-.827-2.337-1.583-3.8-1.68-3.25zm-19.982 4.5c1.175 1.65 2.361 3 2.636 3 .275 0-.461-1.35-1.636-3-1.175-1.65-2.361-3-2.636-3-.275 0 .461 1.35 1.636 3zm157.2 2.348c-3.807 1.38-5.156 3.104-4.473 5.717.387 1.479 1.103 1.721 3.628 1.225 7.253-1.426 7.367-1.515 6.441-5.04-.944-3.597-.931-3.592-5.596-1.902zm-16.2 5.463c-5.544 2.151-6.158 4.838-1 4.375 6.894-.619 11.146-2.189 10.804-3.991-.442-2.332-4.388-2.486-9.804-.384zm34.5.092c-9.976 1.871-9.754 1.594-8.269 10.314.623 3.66.576 3.727-3.049 4.308-8.643 1.385-8.149.941-7.488 6.732 1.062 9.313 1.424 9.743 8.199 9.743 3.269 0 6.696.289 7.615.641 1.486.571 1.634-.173 1.332-6.704l-.34-7.346 8-1.597 8-1.598-.253-4.803c-.243-4.608-2.784-11.71-4.111-11.486-.35.059-4.686.867-9.636 1.796zm16.5 1.048c0 1.073.493 4.248 1.095 7.057.942 4.392 1.397 5.063 3.25 4.799 1.757-.25 2.126-.927 1.995-3.668-.366-7.724-1.292-10.139-3.885-10.139-1.768 0-2.455.546-2.455 1.951zm-1.805 1.549c.02 1.65.244 2.204.498 1.231.254-.973.237-2.323-.037-3-.274-.677-.481.119-.461 1.769zm-185.695.5c.995 1.1 2.035 2 2.31 2 .275 0-.315-.9-1.31-2-.995-1.1-2.035-2-2.31-2-.275 0 .315.9 1.31 2zm156-.345c-7.175 1.517-6.717 1.086-5.978 5.634.376 2.316 1.033 4.584 1.46 5.04.427.457 2.895.512 5.485.124l4.708-.706-.641-3.624c-.918-5.192-1.572-7.139-2.351-7.007-.376.064-1.583.306-2.683.539zm42.579.928c.048 1.165.285 1.402.604.605.289-.722.253-1.585-.079-1.917-.332-.332-.568.258-.525 1.312zm-58.484 2.11c-3.798.707-7.08 1.459-7.293 1.672-.931.931-1.293 7.256-.484 8.459.734 1.09 2.34 1.102 9.094.068l8.202-1.256-.669-4.068c-1.03-6.251-1.136-6.31-8.85-4.875zm62.405-.193c0 .825.177 1.5.393 1.5.216 0 .652-.675.969-1.5.316-.825.139-1.5-.393-1.5-.533 0-.969.675-.969 1.5zm-200 .878c0 .207.788.995 1.75 1.75 1.586 1.243 1.621 1.208.378-.378-1.307-1.666-2.128-2.195-2.128-1.372zM632.179 327c0 1.375.227 1.938.504 1.25.278-.687.278-1.812 0-2.5-.277-.687-.504-.125-.504 1.25zm3.578 7.598c-1.246 1.245.575 3.402 2.871 3.402 1.726 0 2.393-.557 2.393-2 0-1.429-.667-2-2.333-2-1.284 0-2.603.269-2.931.598zm-50.236 1.771c-3.85.622-6.992 1.581-6.982 2.131.011.55.364 3.363.785 6.25l.766 5.25h7.343c9.212 0 9.945-.725 9.017-8.923-.772-6.824.028-6.48-10.929-4.708zm35.5 1.037c-3.772.81-5.448 1.639-5.333 2.638.091.801.456 3.593.811 6.206l.645 4.75h10.933l-.666-6.5-.666-6.5h2.638c1.451 0 2.638-.45 2.638-1 0-1.259-3.924-1.114-11 .406zm7.361 4.093c.354.922.92 3.409 1.259 5.527.538 3.365 2.802 5.885 4.112 4.576.245-.246.065-2.844-.399-5.774-.723-4.56-1.189-5.377-3.23-5.666-1.884-.267-2.249.014-1.742 1.337zm5.718.084c.048 1.165.285 1.402.604.605.289-.722.253-1.585-.079-1.917-.332-.332-.568.258-.525 1.312zm-167.379 2.758c-.283.737-.113 1.975.377 2.75.491.775.899 2.395.908 3.6.008 1.205.494 2.487 1.079 2.848.725.449.838-.567.356-3.191-.388-2.116-1.067-3.99-1.507-4.163-.44-.173-.553-.96-.25-1.75.303-.789.326-1.435.051-1.435s-.732.603-1.014 1.341zm60.05.321c.688.278 1.813.278 2.5 0 .688-.277.125-.504-1.25-.504s-1.937.227-1.25.504zm108.502 2.838c.011 2.2.216 2.982.455 1.738.239-1.244.23-3.044-.02-4s-.446.062-.435 2.262zm-113.983-1.807c.973.254 2.323.237 3-.037.677-.274-.119-.481-1.769-.461-1.65.02-2.204.244-1.231.498zm-7.519.969c.688.278 1.813.278 2.5 0 .688-.277.125-.504-1.25-.504s-1.937.227-1.25.504zm-4.937 1.021c.721.289 1.584.253 1.916-.079.332-.332-.258-.568-1.312-.525-1.165.048-1.402.285-.604.604zm-13 2c.721.289 1.584.253 1.916-.079.332-.332-.258-.568-1.312-.525-1.165.048-1.402.285-.604.604zM535.021 351c0 .55 1.152 1 2.559 1 1.451 0 2.292-.433 1.941-1-.34-.55-1.491-1-2.559-1s-1.941.45-1.941 1zm45.61 2.75c.357 1.512.928 3.03 1.269 3.372.342.341 4.108.898 8.371 1.237 7.567.601 7.75.562 7.75-1.65 0-4.017-3.268-5.709-11.03-5.709h-7.008l.648 2.75zm19.64-1.088c-1.543.623-1.653 4.971-.15 5.9 2.096 1.295 13.366 2.209 14.65 1.187.688-.546 1.25-2.514 1.25-4.371V352l-7.25.079c-3.987.043-7.812.306-8.5.583zm17.282 2.588c.38 1.788 1.343 3.99 2.14 4.895 1.819 2.066 7.328 3.017 7.328 1.265 0-.684.506-1.412 1.125-1.618.714-.238.877-1.505.448-3.461-.572-2.605-1.255-3.182-4.376-3.698-7.011-1.159-7.432-.993-6.665 2.617zm13.468 1.668c0 4.886.808 7.082 2.607 7.082 1.528 0 1.69-1.569.751-7.25-.853-5.16-3.358-5.035-3.358.168zm7 1.655c0 3.816.29 4.519 1.75 4.242 1.277-.242 1.833-1.48 2.057-4.574.27-3.713.052-4.241-1.75-4.241-1.776 0-2.057.624-2.057 4.573zm8.393-1.991c.334.87.607 1.995.607 2.5 0 .505.9.918 2 .918 2.554 0 2.597-2.61.066-3.965-2.687-1.438-3.38-1.296-2.673.547zm-10.198 2.918c.02 1.65.244 2.204.498 1.231.254-.973.237-2.323-.037-3-.274-.677-.481.119-.461 1.769zm-53.889 7.126c.52 4.331 1.055 8.002 1.187 8.158.211.248 4.837-.624 12.257-2.311 2.026-.46 2.25-1.108 2.25-6.492 0-5.614-.145-5.981-2.353-5.981-1.295 0-5.039-.281-8.321-.624l-5.967-.623.947 7.873zm17.694-.107c0 5.212.125 5.49 2.25 4.996 1.237-.288 4.05-.877 6.25-1.309 3.69-.724 4.023-1.061 4.302-4.356.29-3.43.152-3.596-3.5-4.2-2.091-.345-5.039-.633-6.552-.639-2.669-.011-2.75.151-2.75 5.508zm49.07-4.58c-.786.495-1.503 1.725-1.593 2.731-.089 1.007-.501 4.193-.914 7.08-.75 5.247-.326 6.018 2.373 4.311.959-.607 1.428-2.675 1.413-6.235l-.022-5.326.389 4.75c.507 6.2 2.284 6.155 2.284-.059 0-5.481-1.716-8.648-3.93-7.252zm-27.07 3.678c0 1.188.596 1.457 2.25 1.013 1.237-.331 2.614-.609 3.059-.616.445-.008.531-.464.191-1.014-1.043-1.688-5.5-1.188-5.5.617zm11.175 1.267c-1.869 1.166-.527 15.116 1.454 15.116 1.498 0 1.652-3.247.533-11.221-.501-3.573-.984-4.52-1.987-3.895zm-8.822 1.808c-1.498.293-2.315 1.386-2.703 3.614a253.28 253.28 0 01-1.197 6.318c-.616 2.993-.451 3.189 3.952 4.689l4.595 1.566v-8.44c0-8.794.074-8.67-4.647-7.747zm5.805 3.308c0 1.375.227 1.938.504 1.25.278-.687.278-1.812 0-2.5-.277-.687-.504-.125-.504 1.25zm-25.833 1.151l-4.175.937-.608 6.706c-.689 7.6-2.444 21.364-3.239 25.401-.443 2.248.027 3.043 2.833 4.79 2.649 1.649 4.294 1.963 7.742 1.474 2.408-.341 4.995-.857 5.75-1.146 1.589-.61 1.844-3.904.372-4.813-1.511-.934-1.198-5.091.488-6.49 2.057-1.707 2.952.837 2.122 6.028-.605 3.783-.513 3.962 2.029 3.962h2.663l-.646-9.75c-.355-5.363-.648-11.395-.651-13.406-.005-3.458-.258-3.742-4.683-5.25-2.573-.877-5.498-1.594-6.5-1.594-1.002 0-1.822-.6-1.822-1.333 0-2.205 1.241-2.755 2.919-1.296 2.007 1.747 9.014 4.03 9.838 3.206.342-.343-.391-1.333-1.63-2.201-1.239-.868-2.664-2.657-3.165-3.977-.997-2.622-2.594-2.828-9.637-1.248zm-16.075 3.015l-4.25.952.006 4.691c.003 2.58.295 8.402.648 12.938l.642 8.247 4.34 2.426c2.388 1.335 4.556 2.079 4.819 1.654.717-1.161 3.545-23.595 3.545-28.125 0-3.667-.196-3.941-2.75-3.842-1.513.059-4.663.535-7 1.059zm42.357 2.416c-.935 2.437-.72 6.23.393 6.918.611.378 1-1.156 1-3.941 0-4.789-.383-5.608-1.393-2.977zm-9.804 19.269l.438 13.851-3.12.624c-2.923.584-3.121.902-3.121 4.989 0 3.877.406 4.654 3.626 6.946 1.994 1.419 4.194 2.362 4.888 2.095 1.286-.493 2.738-8.511 4.5-24.856 1.604-14.889 1.584-15.004-2.88-16.342-2.126-.637-4.069-1.158-4.317-1.158-.249 0-.255 6.233-.014 13.851zm34.802-10.265c-.334.872-.171 2.335.363 3.25.773 1.324.977.999 1.002-1.586.033-3.559-.424-4.116-1.365-1.664zm-25.98 9.195c-.366 5.345-1.412 14.769-2.325 20.941-1.601 10.826-1.594 11.296.209 13.288 1.508 1.667 2.02 1.797 2.648.675 2.502-4.472 3.245-42.7.858-44.176-.398-.246-1.024 3.926-1.39 9.272zm-47.925-1.914c-.44 2.951-.552 5.614-.25 5.916 1.192 1.192 1.648-.802 1.356-5.922l-.306-5.361-.8 5.367zm57.322-2.192c.011 1.004-.141 10.15-.339 20.325-.251 12.919-.09 16.992.534 13.5 1.855-10.376 1.498-9.733 4.356-7.86 1.657 1.086 2.869 1.318 3.513.674.564-.564.861-5.838.698-12.381l-.284-11.398-4.25-2.343c-3.922-2.161-4.248-2.201-4.228-.517zm15.893 6.219c.228 3.633.599 5.818.823 4.856.225-.962.826-1.75 1.335-1.75 1.746 0 1.033-7.452-.823-8.615-1.614-1.011-1.718-.584-1.335 5.509zM634.253 397c0 1.925.206 2.712.457 1.75.252-.962.252-2.538 0-3.5-.251-.962-.457-.175-.457 1.75zm1.431 3.5c-1.387 12.379-2.741 31.755-2.255 32.242.278.278 1.138.262 1.911-.034 1.082-.415 1.552-4.067 2.044-15.874.352-8.434.264-16.909-.194-18.834-.809-3.396-.854-3.321-1.506 2.5zm15.589 1c.011 2.2.216 2.982.455 1.738.239-1.244.23-3.044-.02-4s-.446.062-.435 2.262zm2.058 3c.005 3.3.192 4.529.415 2.732.222-1.797.218-4.497-.01-6-.229-1.503-.411-.032-.405 3.268zm-68.31 1.606c0 .608 1.125 2.442 2.5 4.076 1.375 1.634 2.5 3.612 2.5 4.395 0 2.352 1.98 1.605 3.025-1.142 1.414-3.719 1.35-3.856-2.911-6.251-4.42-2.484-5.114-2.63-5.114-1.078zm10 7.001c0 1.51.448 1.935 1.582 1.5.87-.334 2.107-.621 2.75-.639 1.276-.035-2.206-2.968-3.523-2.968-.445 0-.809.948-.809 2.107zm17.5.464c-.55.14-2.305.544-3.899.898l-2.899.644 3.727 2.532c2.049 1.393 3.948 2.311 4.219 2.04.899-.898-.129-6.373-1.148-6.114zm-16.197 3.128c-1.707.331-2.548 1.697-3.764 6.114-.862 3.128-2.989 9.512-4.727 14.187-3.392 9.127-5.257 25-2.937 25 .661 0 1.125-1.796 1.125-4.36 0-2.399.277-6.385.617-8.859l.616-4.498 10.296-1.765 10.296-1.764 1.055-4.193c.581-2.306 1.971-5.021 3.088-6.032 1.246-1.128 2.032-3.092 2.032-5.08 0-2.78-.688-3.682-4.838-6.345-4.606-2.956-7.364-3.472-12.859-2.405zm-6.303 3.351c0 2.497-2.552 7.634-4.039 8.13-.652.217-.958 2.534-.771 5.84l.31 5.48 3.25-10.029c3.605-11.122 3.673-11.471 2.25-11.471-.55 0-1 .922-1 2.05zm50.721 4.7c-.297 2.613-.33 4.963-.073 5.223.256.261 1.677-.212 3.159-1.051 3.039-1.721 3.207-5.424.344-7.602-2.559-1.947-2.853-1.653-3.43 3.43zm12.831.192c-.966 1.068-1.522 2.531-1.234 3.25.322.804.605.537.735-.692.12-1.143.5-.501.886 1.5l.676 3.5.45-4.75c.247-2.613.403-4.75.347-4.75-.056 0-.893.874-1.86 1.942zm-38.552 1.15c0 1.151.9 3.237 2 4.635 1.1 1.399 2 3.623 2 4.943 0 2.104.251 2.266 2.035 1.311 1.7-.91 1.926-1.698 1.374-4.785-.39-2.176-1.741-4.607-3.285-5.91-3.3-2.785-4.124-2.823-4.124-.194zM648.785 431c-.405 1.375-.714 4.3-.687 6.5.045 3.645.137 3.781 1.033 1.536.541-1.356.85-4.281.687-6.5-.259-3.52-.391-3.717-1.033-1.536zm-6.514.989c-2.746 1.674-3.248 2.565-3.236 5.746.027 7.461 2.55 10.86 4.836 6.515.912-1.734 2.668-14.253 1.998-14.246-.191.002-1.81.895-3.598 1.985zm8.782 2.82c-.018 1.82.386 3.051.897 2.735.51-.315 1.124.446 1.363 1.691.339 1.763.466 1.587.572-.794.075-1.682-.525-3.932-1.332-5-1.387-1.834-1.47-1.758-1.5 1.368zm-26.573-.742c-.973 1.574.106 2.206 2.48 1.452 1.15-.365 1.832-1.081 1.517-1.591-.778-1.258-3.186-1.174-3.997.139zm9.111 1.82c-.301.487.07 1.399.824 2.025 1.057.877 1.514.769 1.989-.468.339-.884.617-1.796.617-2.026 0-.804-2.887-.41-3.43.469zm-7.07 1.894c-1.1.227-2.335.727-2.744 1.11-.708.663-4.856 15.343-4.45 15.747.107.106 1.597-.397 3.312-1.119 2.805-1.18 3.283-2.04 4.758-8.574.902-3.994 1.524-7.333 1.382-7.419-.142-.087-1.158.028-2.258.255zm2.343 6.469c-.903 3.988-1.526 7.373-1.386 7.524.141.15.996-.011 1.9-.357 1.122-.431 1.643-1.826 1.643-4.399 0-2.072.281-5.174.625-6.893.344-1.719.228-3.125-.258-3.125-.485 0-1.621 3.262-2.524 7.25zm17.352-3.75c.02 1.65.244 2.204.498 1.231.254-.973.237-2.323-.037-3-.274-.677-.481.119-.461 1.769zm-13.608 3.554c-.766 5.779-.36 6.833 1.908 4.95 1.126-.934 1.37-2.259.903-4.892-1.006-5.673-2.063-5.694-2.811-.058zm-13.92-3.387c-.367.366-.667 1.431-.667 2.365 0 .934-.9 2.842-2 4.241-3.163 4.021-2.401 11.368.776 7.477 1.103-1.351 4.224-11.276 4.224-13.432 0-1.406-1.234-1.751-2.333-.651zm-16.917 3.049c-1.513.229-2.75.867-2.75 1.417 0 1.909 9.391 11.867 11.191 11.867 1.401 0 1.809-.79 1.809-3.5 0-1.925-.421-3.5-.935-3.5-.515 0-1.505-1.575-2.201-3.5-1.27-3.513-1.558-3.625-7.114-2.784zm-10.25 2.216c-2.923.564-3.014.76-3.556 7.574-.306 3.847-.421 7.179-.256 7.405.275.375 11.664-1.367 17.06-2.609 2.233-.514 2.227-.546-.906-4.501-1.735-2.191-3.872-4.233-4.748-4.537-.877-.305-2.269-1.309-3.094-2.233-1.052-1.176-2.397-1.505-4.5-1.099zm46.083-.066c-.431.697-.513 1.537-.183 1.867.895.895 1.871-.421 1.387-1.871-.338-1.016-.574-1.016-1.204.004zm9.449 2.134l-.269 3.5-.724-3c-.763-3.16-1.559-2.315-2.354 2.5-.401 2.431-.416 2.424-.549-.25-.242-4.891-3.373-2.79-4.47 3-.665 3.507.304 4.137 2.691 1.75.825-.825 1.776-1.5 2.113-1.5 2.048 0 4.644-4.053 4.256-6.646-.4-2.676-.443-2.636-.694.646zm-10.348 3.382c-.376.98-.643 2.982-.594 4.45.084 2.487.156 2.441 1.053-.674 1.039-3.612.664-6.702-.459-3.776zm-5.054 2.868c-.331 1.238-.569 4.05-.527 6.25l.076 4 1.391-5c.765-2.75 1.4-5.562 1.411-6.25.032-2.122-1.713-1.379-2.351 1zm18.08-.25c.288 1.1.696 2 .907 2 .21 0 .383-.9.383-2s-.408-2-.906-2c-.499 0-.671.9-.384 2zm-22.268.558c-1.119 1.119-2.842 5.016-3.828 8.66l-1.793 6.624 2.483 3.655c1.366 2.01 2.712 3.283 2.99 2.829.801-1.308 2.953-19.807 2.548-21.907-.352-1.831-.435-1.826-2.4.139zm-6.618 1.58c-1.909.698-3.102 2.231-4.163 5.344-1.391 4.083-1.364 4.477.426 6.097 1.749 1.583 1.913 1.589 1.913.076 0-.91.601-1.655 1.335-1.655.767 0 1.988-2.343 2.867-5.5.842-3.025 1.253-5.464.914-5.421-.339.043-1.82.52-3.292 1.059zm22.184 1.352c-1.536 1.851-2.644 14.999-1.332 15.809.925.572 3.941-16.015 3.07-16.886-.253-.254-1.036.231-1.738 1.077zm4.129 11.223c-1.289 6.692-2.168 12.695-1.953 13.34.562 1.684 5.107-21.303 4.666-23.594-.203-1.052-1.423 3.563-2.713 10.254zm-34.137-8.213c0 2.793 1.459 3.353 2.393.918.96-2.502.721-3.418-.893-3.418-.933 0-1.5.944-1.5 2.5zm25.427-.735c-1.508 1.033-2.564 4.235-1.396 4.235.533 0 .969-.45.969-1s.675-1 1.5-1 1.5-.675 1.5-1.5c0-1.631-.892-1.886-2.573-.735zm-42.406 2.16l-8.479 1.68-.814 4.12c-.753 3.808-.48 4.641 3.623 11.043 8.556 13.347 8.376 12.409 3.829 20.038l-3.957 6.641 2.226 5.034c1.225 2.769 3.235 8.066 4.468 11.77 2.049 6.157 2.411 6.644 4.226 5.672 1.416-.757 2.368-.743 3.324.049 1.725 1.432 2.65-.719 1.375-3.199-.634-1.232-.33-2.285 1.059-3.674 1.88-1.88 4.099-5.4 4.099-6.502 0-.294-.675-.275-1.5.041-.914.351-1.5.002-1.5-.892 0-1.044-.755-1.324-2.611-.97-2.195.42-2.521.199-2.046-1.388.311-1.038 1.502-7.063 2.648-13.388 1.145-6.325 2.249-12.288 2.452-13.25.203-.962.27-1.75.147-1.75-.33 0-8.283 16.213-8.952 18.25-.708 2.155-2.225 2.27-3.008.227-.322-.837.294-2.401 1.367-3.474 3.331-3.331 9.216-16.016 8.59-18.513-.312-1.241-1.921-3.707-3.577-5.479-2.943-3.151-4.032-7.011-1.979-7.011.568 0 1.283.788 1.591 1.75.846 2.646 2.323 5.525 3.973 7.745 1.232 1.656 1.634 1.752 2.368.565 1.252-2.027 2.344-12.517 1.56-14.989-.789-2.485-2.6-2.503-14.502-.146zm34.785 7.854l-2.689 9.527 2.301 4.528 2.301 4.527 1.719-5.175c1.877-5.651 1.92-21.834.059-22.549-.551-.211-2.212 3.903-3.691 9.142zm14.321-2.501c-2.36 11.638-2.318 11.326-1.32 9.722 1.091-1.752 3.638-14.888 3.009-15.517-.235-.235-.995 2.372-1.689 5.795zm-32.14 3.972c-1.987 5.344-2.752 10.523-1.764 11.929.729 1.037 1.038 1.052 1.436.071.279-.687 1.195-1.25 2.036-1.25 1.218 0 1.388.744.84 3.667-.665 3.541 1.715 11.333 3.46 11.333.717 0 7.005-15.367 7.005-17.117 0-1.849-4.494-7.568-5.641-7.178-.627.214-2.042-.757-3.143-2.158-1.102-1.401-2.233-2.547-2.512-2.547-.28 0-1.052 1.462-1.717 3.25zm-27.336 6.417c-.299 1.558-.822 4.858-1.161 7.333-.34 2.475-2.007 11.907-3.704 20.959-2.479 13.216-2.89 17.198-2.088 20.206.907 3.395.733 4.069-1.854 7.207l-2.853 3.463 1.959 8.204c1.078 4.512 2.13 8.374 2.338 8.583.208.208 2.931-.135 6.052-.761 5.089-1.022 6.018-1.62 9.03-5.812 2.651-3.691 3.505-6.055 4.06-11.243.669-6.246.47-7.171-4.041-18.776-4.642-11.943-4.708-12.265-3.026-14.868.945-1.464 2.664-4.522 3.821-6.796l2.102-4.134-3.817-6.366c-6.426-10.719-6.19-10.47-6.818-7.199zm53.107-.966c-.958 1.066-2.622 4.498-3.698 7.626-1.704 4.953-1.787 6.093-.639 8.824l1.319 3.136 2.7-8.107c1.485-4.459 2.556-9.302 2.38-10.762-.314-2.602-.355-2.617-2.062-.717zm3.321 5.882c.048 1.165.285 1.402.604.605.289-.722.253-1.585-.079-1.917-.332-.332-.568.258-.525 1.312zm-15.079 2.476c0 1.132-.391 1.817-.869 1.522-.743-.459-2.694 3.656-5.653 11.919-.394 1.1.497.286 1.979-1.809 2.186-3.089 2.965-3.586 4.119-2.628.783.65 1.424 2.225 1.424 3.5 0 3.075 1.258 3.703 4.279 2.136 2.291-1.189 2.392-1.524 1.272-4.245l-1.215-2.954-1.332 4c-.732 2.2-1.506 3.479-1.72 2.843-.214-.636.301-2.808 1.145-4.827 1.428-3.417 1.395-3.94-.468-7.593-2.253-4.416-2.961-4.861-2.961-1.864zM609.679 487c-.283 1.375-1.248 6.55-2.144 11.5-.896 4.95-1.847 9.75-2.113 10.667-.369 1.272.001 1.541 1.558 1.133 1.123-.293 2.041-.656 2.041-.807 0-.15.897-4.631 1.993-9.958 1.749-8.503 1.821-10.011.586-12.36l-1.407-2.675-.514 2.5zm33.421 1.583c.048 1.165.285 1.402.604.605.289-.722.253-1.585-.079-1.917-.332-.332-.568.258-.525 1.312zm-5.807 5.883c-.664 2.163-1.009 4.13-.767 4.372.689.69 2.61-5.002 2.275-6.743-.166-.859-.844.208-1.508 2.371zm-25.157 6.121c-.701 4.173-1.078 7.783-.838 8.023 1.134 1.134 3.644-1.109 5.266-4.705 1.682-3.73 1.69-4.192.141-7.441-.908-1.905-2.021-3.464-2.473-3.464-.451 0-1.395 3.414-2.096 7.587zm27.329-4.143c-.376 2.007-.459 3.874-.184 4.149.275.275.808-1.142 1.184-3.149.377-2.006.46-3.873.185-4.148-.275-.275-.808 1.142-1.185 3.148zm-1.444 7.723c0 1.008.209 1.833.465 1.833.255 0 .906-.825 1.446-1.833.741-1.385.627-1.834-.465-1.834-.795 0-1.446.825-1.446 1.834zm-20.4.433c-.356.927-.422 1.911-.147 2.186.275.275.791-.259 1.147-1.186.356-.927.422-1.911.147-2.186-.275-.275-.791.259-1.147 1.186zm12.4 1.4c0 .55.45 1 1 1s1-.45 1-1-.45-1-1-1-1 .45-1 1zm4.079-.332c-.043.643-.338 1.993-.655 3-.547 1.741-.518 1.744.571.044.631-.983.925-2.333.655-3-.355-.875-.514-.887-.571-.044zm-8.508 2.903c-.864.865-1.564 1.652-1.556 1.75.009.099.639 2.204 1.402 4.679l1.387 4.5 1.671-3.892c1.631-3.8 1.395-8.608-.423-8.608-.5 0-1.616.707-2.481 1.571zm9.999 1.929a157.29 157.29 0 01-1.759 6.317c-1.649 5.415-.161 4.754 1.663-.739.923-2.778 1.491-5.845 1.262-6.815-.295-1.252-.633-.893-1.166 1.237zm-20.063-.511c-.35.566.051.734.941.393 1.732-.665 2.049-1.382.611-1.382-.518 0-1.216.445-1.552.989zm-4.694 1.694c.721.289 1.584.253 1.916-.079.332-.332-.258-.568-1.312-.525-1.165.048-1.402.285-.604.604zm3.937 1.397c-2.284 1.33-5.024 6.633-3.814 7.38.51.316 1.48 3.041 2.155 6.057.675 3.016 1.497 5.483 1.826 5.483.994 0 5.049-16.926 4.437-18.52-.658-1.714-2.129-1.841-4.604-.4zm6.287 2.322c-.57 1.501-1.037 3.213-1.037 3.805 0 .593-.927 4.189-2.059 7.992-1.133 3.802-1.915 8.351-1.739 10.107.299 2.986.604 2.643 4.667-5.249 3.719-7.223 4.276-9.078 3.852-12.837-.649-5.763-2.296-7.469-3.684-3.818zm8.918 7.209c-1.441 3.784-2.35 8.389-1.655 8.389.718 0 3.736-10.297 3.181-10.852-.234-.234-.92.875-1.526 2.463zm-95.35 7.139c-.992 4.263-3.275 12.813-5.074 19-1.799 6.188-3.043 11.25-2.763 11.25.594 0 17.232-11.114 17.232-11.511 0-.789-3.203-17.675-4.123-21.739-.592-2.612-1.615-4.75-2.273-4.75-.671 0-1.989 3.405-2.999 7.75zm73.494-3.193c-1.155 1.957-2.099 4.647-2.099 5.98 0 1.332-.733 4.255-1.629 6.495-1.069 2.671-1.327 4.693-.75 5.876 1.419 2.911 7.089.031 9.015-4.579 1.361-3.257 1.344-4.289-.171-10.471-.924-3.772-1.813-6.858-1.974-6.858-.161 0-1.238 1.601-2.392 3.557zm16.047 1.193c-.577 1.513-1.936 4.635-3.021 6.939-1.287 2.732-1.535 4.022-.713 3.706 1.52-.583 4.055-5.694 5.034-10.149.87-3.963.131-4.246-1.3-.496zm-48.129-.75c-.024.825-.314 2.625-.645 4l-.6 2.5 1.667-2.244c1.234-1.662 1.401-2.701.644-4-.804-1.381-1.032-1.435-1.066-.256zm-74.319 12.5c-2.377 9.406-10.071 32.705-13.734 41.587-1.63 3.954-2.964 7.837-2.964 8.63 0 1.734 2.784 1.249 12.14-2.113l6.36-2.285.85-18.161c.475-10.149.468-21.799-.017-26.409l-.866-8.249-1.769 7zm62.995 7.305c-5.898 5.961-7.277 8.832-3.693 7.695 1.147-.364 2-.18 2 .433 0 .587.788 1.062 1.75 1.057 1.299-.008 2.315-1.868 3.944-7.222 1.207-3.967 2.081-7.326 1.943-7.464-.138-.139-2.813 2.337-5.944 5.501zm5.68 1.445c-1.154 3.987-2.024 7.349-1.933 7.469.091.121 1.829-.051 3.863-.381 2.665-.432 3.697-1.1 3.697-2.393 0-2.733-2.264-11.945-2.936-11.945-.326 0-1.537 3.263-2.691 7.25zm47.877-6.53c-.687.246-1.25 1.409-1.25 2.586 0 2.124.011 2.123 1.602-.148 1.725-2.463 1.626-3.144-.352-2.438zm3.417 5.447c-2.134 5.431-1.518 6.047.833.833.997-2.211 1.588-4.246 1.312-4.521-.275-.275-1.24 1.384-2.145 3.688zM595.021 547c-2.396 3.364-1.547 3.784 3.851 1.902 2.044-.712 3.149-1.765 3.149-3 0-3.13-4.491-2.426-7 1.098zm29.111.111c-.616 1.767-.945 3.388-.731 3.602.214.214.893-1.057 1.509-2.824.616-1.767.945-3.388.731-3.602-.214-.214-.893 1.057-1.509 2.824zM611.731 547c-.287 1.1-.356 2-.152 2 .205 0 .853-.9 1.442-2 .591-1.105.659-2 .152-2-.505 0-1.154.9-1.442 2zm-4.96.572c-2.913 1.58-3.193 2.183-1.935 4.163 1.042 1.641 4.721-.851 5.467-3.704.625-2.391.145-2.454-3.532-.459zm10.75 1.428c-.375 1.183-.458 2.376-.183 2.651.275.275.808-.468 1.183-1.651s.458-2.376.183-2.651c-.275-.275-.808.468-1.183 1.651zm-22.418 2.718c-3.837 1.355-9.565 6.125-8.564 7.132.377.378 5.464-1.108 12.232-3.573 2.926-1.067 4.25-2.129 4.25-3.413 0-2.245-1.877-2.279-7.918-.146zm17.66-.593c-.958.536-1.742 1.782-1.742 2.77 0 .987-.967 2.652-2.15 3.7-2.147 1.903-2.149 1.902-1.481-.845.409-1.679.26-2.75-.381-2.75-1.646 0-2.335 2.877-1.057 4.417.655.789.873 2.517.504 3.987-.359 1.428-.429 2.596-.157 2.596.685 0 8.985-14.071 8.554-14.502-.192-.191-1.132.091-2.09.627zm-1.992 9.332c-3.306 5.413-4.75 8.852-4.75 11.315 0 3.426.061 3.483 1.921 1.799 2.335-2.112 8.383-16.759 7.915-19.165-.217-1.115-2.016 1.026-5.086 6.051zm-60.75-.832c-3.575 3.019-10.583 8.179-15.572 11.466-11.456 7.546-11.995 8.688-12.886 27.278l-.664 13.869 3.811-2.307c7.338-4.444 17.879-11.706 18.959-13.062 1.076-1.353 10.415-24.035 11.884-28.865.417-1.373 1.376-2.948 2.129-3.5 1.002-.734 1.196-2.282.719-5.754-.358-2.612-.928-4.72-1.266-4.683-.338.037-3.539 2.538-7.114 5.558zm32.394-4.488c-3.685.829-4.056 1.182-3.622 3.451.325 1.702.959 2.346 1.937 1.97.8-.307 1.783-.558 2.185-.558.401 0 1.728-1.35 2.948-3s1.867-2.952 1.438-2.893c-.429.059-2.627.523-4.886 1.03zm-10.394 2.167c-2.475.492-4.557.963-4.626 1.046-.069.082-.455 1.221-.858 2.53-.721 2.342-.655 2.368 4.125 1.655 6.149-.917 7.14-1.546 6.431-4.081-.519-1.855-.993-1.962-5.072-1.15zm23 1.231c-3.575 1.311-7.238 2.402-8.139 2.424-.902.023-2.694.895-3.983 1.939-2.324 1.882-2.341 2.046-2.055 20.25.344 21.918.39 22.168 3.814 20.608 3.457-1.575 7.376-9.6 7.312-14.973l-.051-4.283-4.898 9.5c-2.694 5.225-4.921 9.194-4.949 8.821-.121-1.622 8.932-19.821 9.86-19.821 1.001 0 6.829-8.103 10.337-14.375 2.062-3.684 2.421-12.666.502-12.549-.687.042-4.175 1.149-7.75 2.459zm-32.768 1.015c-2.264 1.586-2.035 4.45.356 4.45 1.296 0 3.146-4.599 2.222-5.524-.237-.236-1.397.247-2.578 1.074zm8.851 4.969c-6.083.966-6.483 1.2-7.674 4.5-1.82 5.041-1.71 8.652.288 9.418 1.22.468 3.495-1.148 8.1-5.753 8.108-8.108 7.982-9.546-.714-8.165zm-13.711 3.168c-.338.997-2.557 6.763-4.931 12.813a3604.511 3604.511 0 00-5.056 12.934c-.595 1.556-.023 1.362 2.92-.986 6.063-4.838 12.37-23.677 8.688-25.952-.554-.343-1.284.193-1.621 1.191zm3.628-.187c0 .825.177 1.5.393 1.5.216 0 .652-.675.969-1.5.316-.825.139-1.5-.393-1.5-.533 0-.969.675-.969 1.5zm52.667-.833c-.367.366-.667 1.131-.667 1.7 0 .626.466.567 1.183-.15.651-.651.951-1.416.667-1.7-.284-.285-.817-.217-1.183.15zm-42.336 8.55c-5.264 5.436-7.313 8.317-7.711 10.843-.801 5.082-1.362 25.94-.698 25.94.314 0 4.004-1.143 8.2-2.541 7.416-2.469 7.647-2.644 8.243-6.25.775-4.686.644-23.01-.214-30.052l-.651-5.342-7.169 7.402zm32.785-3.049c-.064.918-.375 2.493-.692 3.5-.545 1.736-.515 1.739.568.051.628-.98.939-2.555.691-3.5-.406-1.549-.462-1.554-.567-.051zm4.061 5.405c-1.222 2.515-1.755 4.284-1.185 3.932 1.448-.895 5.231-8.505 4.228-8.505-.452 0-1.821 2.058-3.043 4.573zm-48.613 2.134c-.542 1.425-.428 1.54.56.56.684-.679.991-1.486.683-1.793-.308-.308-.867.247-1.243 1.233zm39.623 4.043c-1.712 2.612-3.842 5.737-4.734 6.943-.892 1.206-1.454 3.006-1.248 4 .274 1.328 1.396.279 4.235-3.958 2.125-3.171 4.084-5.545 4.353-5.275.269.269-1.796 3.621-4.589 7.45-3.729 5.111-5.526 8.77-6.766 13.775-.928 3.748-2.097 7.603-2.598 8.565-.501.962-.686 1.75-.412 1.75 1.346 0 13.572-20.291 13.572-22.526 0-.326-.45-.314-1 .026-1.42.877-1.245-.127.661-3.8.913-1.76 1.792-4.1 1.954-5.2.162-1.1.592-3.013.956-4.25 1.111-3.776-1.097-2.517-4.384 2.5zm-89.417.589c-3.957 1.808-4.733 2.611-4.75 4.911-.018 2.485.32 2.75 3.516 2.75 3.247 0 3.695-.374 5.5-4.583 2.779-6.484 2.938-6.37-4.266-3.078zm5.964 3.671l-2.584 5.99h-8.79l-1.186 10.25c-.652 5.638-1.183 11.038-1.18 12 .009 2.627 6.067 2.26 11.957-.725l4.884-2.475.545-6.275c1.592-18.35 1.644-22.51.292-23.632-1.083-.899-1.87.075-3.938 4.867zm41.997-4.09c-.435 1.663-.305 2.054.437 1.312.582-.582.86-1.647.62-2.369-.25-.749-.703-.295-1.057 1.057zm-60.098 5.509c-2.356 1.041-2.564 1.383-1.168 1.919 3.536 1.357 6.535.739 6.535-1.348 0-2.264-1.237-2.396-5.367-.571zm57.986.821c-.784 1.237-3.247 5.85-5.473 10.25-4.78 9.451-5.386 9.451-1.146 0 1.65-3.678 3-6.902 3-7.166 0-.264-1.571.816-3.492 2.398-2.229 1.838-5.109 6.203-7.966 12.073-2.462 5.057-4.236 9.195-3.944 9.195.292 0 1.667-1.35 3.055-3 3.111-3.697 6.347-4.021 6.347-.637 0 2.298.143 2.338 5.104 1.436 10.421-1.894 9.896-1.109 9.896-14.774 0-11.312-.117-12.025-1.977-12.025-1.087 0-2.619 1.013-3.404 2.25zm-99.096 11c-2.62 5.638-4.965 10.765-5.21 11.394-.288.74 1.693 1.392 5.611 1.847 5.553.645 6.307.493 9.061-1.825 1.652-1.39 3.884-2.807 4.958-3.148 2.134-.677 2.37-1.246 4.072-9.831.868-4.374 1.672-6.006 3.249-6.589 1.497-.554.115-.962-4.834-1.429-12.823-1.211-11.556-1.929-16.907 9.581zm27.477-7.572c-.825.246-2.974 3.64-4.776 7.542l-3.276 7.096 2.026 2.156c1.114 1.186 2.026 3.082 2.026 4.212 0 2.392 3.694 3.287 13.647 3.305l6.146.011 1.142-8.75c.627-4.812 1.357-10.149 1.622-11.858.477-3.086.441-3.114-4.788-3.742-5.73-.688-11.401-.676-13.769.028zm-6.323 2.072c-.243.413-.733 2.325-1.09 4.25l-.648 3.5 1.989-3.5c2.248-3.957 2.484-5 1.131-5-.518 0-1.14.337-1.382.75zm111.947 3.789c-.965 2.514-.681 3.163.498 1.136.584-1.004.851-2.036.593-2.293-.257-.258-.749.263-1.091 1.157zm-54.635 5.784c-3.569 2.378-8.402 5.386-10.739 6.684-2.573 1.43-4.25 3.078-4.25 4.177 0 1.526.839 1.814 5.25 1.801 7.698-.021 9.638-1.43 13.403-9.735 1.807-3.987 3.183-7.25 3.056-7.25-.127 0-3.151 1.945-6.72 4.323zm50.761 2.698c-3.81 4.871-8.062 12.581-9.272 16.815-.587 2.056-.446 2.208 1.177 1.267 3.41-1.976 6.086-4.702 7.721-7.862 1.529-2.957 4.887-14.347 4.365-14.803-.133-.116-1.928 1.947-3.991 4.583zm-3-1.401c-1.728.908-2.75 2.261-2.75 3.643 0 2.056.207 1.992 3.199-1 3.684-3.685 3.508-4.721-.449-2.643zm-13.418 5.221c-7.082 2.543-7.174 2.623-7.786 6.699-.449 2.995-1.636 5.088-4.332 7.641-4.611 4.365-15.557 12.976-24.436 19.224-5.293 3.725-6.934 5.501-7.723 8.356-.55 1.995-.9 3.667-.778 3.716.123.049.948.64 1.834 1.313 1.348 1.024 2.71.422 8.342-3.684 3.703-2.699 8.22-7.118 10.039-9.819 2.489-3.696 4.269-5.198 7.193-6.075 2.138-.64 4.864-2.075 6.059-3.188 2.387-2.224 3.779-2.679 2.661-.869-.456.737-.273.882.507.399.672-.415.978-.997.682-1.294-.297-.296 1.586-2.882 4.183-5.746 4.513-4.976 13.259-19.66 11.543-19.38-.451.073-4.045 1.291-7.988 2.707zm6.3 4.409l-1.799 3.25 2.061-2.5c1.828-2.217 2.64-4 1.822-4-.157 0-1.094 1.462-2.084 3.25zm-25.132.452c-3.85.821-7.548 1.942-8.218 2.491-.669.549-3.269 4.555-5.776 8.903-2.508 4.347-5.185 7.904-5.95 7.904-1.248 0-4.204 9.685-3.248 10.641.46.46 13.843-8.778 20.192-13.939 10.324-8.391 12.5-10.899 12.5-14.405 0-3.727.275-3.681-9.5-1.595zm-106.743 9.048c-3.023 5.362-5.422 9.845-5.332 9.961.267.345 18.934-1.697 20.752-2.27.923-.291 2.516-1.972 3.541-3.735 1.822-3.133 1.821-3.248-.031-5.06-1.327-1.298-1.729-2.686-1.341-4.627.512-2.559.269-2.821-3.146-3.385-8.562-1.416-8.478-1.469-14.443 9.116zm71.243-8.75c-1.219.788-1.09.972.691.985 1.205.008 2.469-.435 2.809-.985.787-1.273-1.53-1.273-3.5 0zm-40.75 6.389c-4.137 4.048-5.526 7.584-3 7.637 3.12.066 24.715-7.493 25.228-8.83.313-.815.446-1.586.296-1.712-.151-.127-4.324-.461-9.274-.742l-9-.512-4.25 4.159zm51.277-3.471l-5.973.582-1.093 7.304c-.602 4.018-.746 7.52-.322 7.782.425.263 2.255-.149 4.067-.916 2.503-1.059 4.211-3.108 7.114-8.532 2.102-3.926 3.452-7.062 3-6.97-.451.093-3.508.43-6.793.75zm6.588 4.382c-1.973 3.447-2.831 6.068-2.457 7.5.316 1.21.86 2.191 1.209 2.18 1.478-.046 7.156-11.333 6.593-13.106-.946-2.981-2.104-2.239-5.345 3.426zm-26.615-2.808c-3.465 1.535-5.954 5.405-6.916 10.758l-.675 3.75h17.833l.682-5.14c.375-2.827.939-6.427 1.254-8 .568-2.842.541-2.859-4.303-2.778-2.681.044-6.225.679-7.875 1.41zm65.573 3.236c-1.69 2.05-3.073 4.537-3.073 5.526 0 1.66.221 1.683 2.892.302 2.482-1.284 5.108-5.758 5.108-8.705 0-1.843-1.999-.676-4.927 2.877zm9.427.885a166.86 166.86 0 01-3.73 2.798c-2.189 1.581-5.424 8.974-3.67 8.389 1.072-.357 10.603-12.848 9.743-12.768-.189.017-1.243.729-2.343 1.581zm-91 2.021c-2.2.821-7.764 2.505-12.365 3.742l-8.364 2.249-3.429 11.323c-1.886 6.229-4.061 12.838-4.834 14.688-.773 1.85-1.198 3.364-.943 3.364s4.562-6.187 9.572-13.75l9.108-13.75h18.148l.727-3.49c.736-3.538-.329-6.075-2.492-5.94-.621.039-2.928.743-5.128 1.564zm-25.075 2.512c-1.516 2.931-1.512 3.101.056 2.5.925-.355 2.043-.646 2.484-.646.441 0 1.017-1.125 1.28-2.5.692-3.623-1.834-3.196-3.82.646zm104.575 3.234c-4.347 2.584-7.18 5.571-11.972 12.62-4.705 6.922-7.115 11.58-6.374 12.321.316.315-.371 1.775-1.526 3.244-2.485 3.159-1.769 5.325.948 2.866 1.032-.934 1.68-2.017 1.439-2.406-.24-.39 1.12-2.218 3.024-4.063 1.904-1.845 3.461-2.951 3.461-2.458 0 1.435 2.356-1.324 2.611-3.057.204-1.392-.076-1.378-2.44.122-1.469.933-3.745 2.649-5.057 3.813l-2.385 2.118 1.112-2.142c.613-1.177 3.074-3.29 5.47-4.694 5.654-3.314 10.977-9.267 13.612-15.223 1.156-2.612 1.983-4.838 1.839-4.946-.144-.108-1.837.741-3.762 1.885zm-106 1.264c-.825.227-2.526 2.199-3.78 4.384-2.653 4.623-3.746 4.794-15.84 2.48-4.288-.82-8.079-1.158-8.424-.75-.345.408-3.615 5.082-7.267 10.386l-6.639 9.644 13.725 2.549c7.549 1.402 15.521 2.687 17.716 2.856l3.991.307 5.199-15.5c2.859-8.525 5.226-15.837 5.259-16.25.062-.778-1.355-.816-3.94-.106zm-12 1.91c-.825.178-4.2.643-7.5 1.035l-6 .713 6.5 1.287c9.702 1.922 11.533 1.773 13.408-1.089 1.635-2.495 1.632-2.5-1.635-2.384-1.8.064-3.948.261-4.773.438zm23.877 7.293c-2.299 3.659-6.778 10.322-9.952 14.806l-5.771 8.153 3.173.566c5.965 1.065 24.147.875 27.063-.282 12.045-4.78 20.532-9.497 21.502-11.95 1.557-3.939 3.432-12.149 2.896-12.685-.257-.257-4.864 1.586-10.236 4.097-5.373 2.51-9.972 4.362-10.22 4.114-.248-.248.233-3.068 1.068-6.266.835-3.198 1.424-5.886 1.309-5.973-.115-.087-3.909-.4-8.43-.696l-8.222-.538-4.18 6.654zm43.963-5.143c-1.464.908-2.904 2.868-3.202 4.357a209.99 209.99 0 01-1.214 5.572c-.5 2.132.335 1.328 3.253-3.133 5.436-8.309 5.543-8.503 4.632-8.473-.445.014-2.006.769-3.469 1.677zm.614 6.911c-3.056 4.738-5.413 8.76-5.236 8.937.178.177 2.642-1.018 5.478-2.655 4.715-2.722 5.247-3.404 6.23-7.986 2.093-9.761.685-9.39-6.472 1.704zm-23.086-2.602c-.989 4.829-.95 4.99 1.053 4.369 2.978-.924 17.579-8.31 17.579-8.893 0-.269-3.961-.489-8.803-.489h-8.802l-1.027 5.013zm59.277-2.948c-1.444 1.136-3.039 1.809-3.545 1.497-1.457-.901-4.055.482-5.273 2.806-1.057 2.016-1.015 2.045.777.534 5.002-4.216 4.219-2.415-1.203 2.768-7.128 6.813-12.122 13.335-10.202 13.32 2.415-.018 11.285-4.708 13.444-7.108 2.973-3.305 10.357-14.033 10.357-15.048 0-1.393-1.592-.943-4.355 1.231zm-37.542 14.528c-2.968 1.795-5.735 3.812-6.15 4.482-1.007 1.63-.966 7.925.052 7.925 2.061 0 9.626-7.604 10.762-10.816.697-1.971 1.147-3.869 1-4.219-.147-.349-2.695.834-5.664 2.628zm13.071 4.555c-2.929 2.219-5.179 4.178-5 4.355 1.284 1.264 6.328-1.35 8.92-4.621 3.888-4.91 2.818-4.837-3.92.266zm11.204 2.52a1550.44 1550.44 0 01-11.378 8.62c-3.575 2.68-8.975 7.479-12 10.663-5.122 5.392-5.97 5.881-12.337 7.12l-6.837 1.33-2.873 5.55c-1.58 3.052-3.881 7.083-5.112 8.958l-2.238 3.408 4.948-2.828c8.551-4.887 25.645-16.528 33.449-22.779 10.703-8.573 10.933-8.698 6.5-3.547-2.2 2.557-4.557 4.691-5.238 4.743-.68.052-5.083 2.938-9.783 6.413-4.7 3.476-12.803 8.953-18.007 12.172-5.204 3.219-9.305 6.009-9.115 6.199.19.191 3.536-.952 7.435-2.538 6.676-2.717 19.423-11.366 23.592-16.008 1.036-1.153 2.196-1.904 2.578-1.668 1.182.731 12.048-10.932 12.533-13.452.253-1.31 1.769-3.763 3.37-5.453 3.044-3.211 6.604-9.435 5.836-10.203-.245-.245-2.641 1.24-5.323 3.3zm-7.287 1.422c-2.407.962-4.156 2.734-6.219 6.302-.749 1.295.376.836 3.562-1.452 7.253-5.209 8.29-7.102 2.657-4.85zm13.781.66c-1.243 1.586-1.208 1.621.378.378 1.666-1.307 2.195-2.128 1.372-2.128-.207 0-.995.788-1.75 1.75zM416.2 666.773c-2.212 2.794-2.854 4.479-2.469 6.488.361 1.892.042 2.897-1.054 3.318-.865.332-3.565 4.288-6 8.791s-6.262 11.09-8.506 14.639c-2.839 4.49-3.71 6.643-2.865 7.081 2.736 1.418 18.681 4.135 20.941 3.568 1.339-.336 6.625-4.943 11.747-10.237 7.044-7.282 8.976-9.835 7.929-10.481-.853-.528-2.235-.297-3.607.602-1.224.802-3.59 1.458-5.26 1.458-3.925 0-4.127-2.996-.4-5.927 3.424-2.694 7.381-2.729 8.075-.073.335 1.279 1.364 2 2.857 2 1.728 0 4.284-2.376 9.846-9.155 4.132-5.036 7.315-9.477 7.072-9.869-.242-.392-3.263-1.031-6.713-1.42-3.449-.39-10.484-1.574-15.632-2.632S421.988 663 420.995 663c-.993 0-3.151 1.698-4.795 3.773zm80.321-1.207c-4.728 2.277-4.833 2.409-1.924 2.421 1.999.008 3.897-.862 5.424-2.487 2.802-2.982 2.829-2.983-3.5.066zm29.603.145c-2.068.82-7.424 7.187-8.82 10.487l-1.218 2.877 3.044-1.788c2.68-1.573 8.158-7.461 10.271-11.037.766-1.298-.736-1.545-3.277-.539zm18.302 3.539l-1.905 2.25 2.25-1.905c2.114-1.79 2.705-2.595 1.905-2.595-.19 0-1.202 1.013-2.25 2.25zm-34.155-.219c-1.238.498-2.25 1.359-2.25 1.915 0 .647.9.601 2.5-.128 1.375-.626 2.5-1.517 2.5-1.979 0-.968.165-.98-2.75.192zm-54.764 3.656c-.836 2.002-2.716 6.303-4.177 9.56-3.183 7.091-2.576 7.904 5.601 7.512l5.41-.259 3.159-7.44 3.159-7.439 5.743-1.915c3.159-1.053 5.603-2.03 5.432-2.171-.172-.141-5.374-.534-11.559-.872l-11.247-.616-1.521 3.64zm22.508.394l-8.506 2.923-2.494 6.244c-1.372 3.434-2.644 6.583-2.827 6.998-.184.415 4.316.742 10 .726l10.333-.027 2.5-3.597c1.375-1.979 3.567-4.656 4.87-5.949 1.605-1.591 2.434-3.652 2.566-6.375l.195-4.024-4.066.079c-2.236.043-7.893 1.394-12.571 3.002zm30.67.047c-1.386.806-7.664 12.563-7.664 14.354 0 .162 2.813-.388 6.25-1.223 3.801-.923 7.23-2.491 8.75-4 2.361-2.345 2.375-2.419.25-1.336-2.636 1.344-2.777.584-.779-4.2 1.386-3.316 1.363-3.492-.387-3.035-1.022.268-2.161-.003-2.53-.601-.826-1.336-1.534-1.329-3.89.041zm-10.455 5.757c-4.588 2.333-9.182 7.008-9.202 9.365-.004.413 1.231.744 2.743.736 5.829-.029 7.415-1.11 9.913-6.758 1.332-3.012 2.29-5.602 2.129-5.755-.16-.153-2.673.933-5.583 2.412zm-91.374-.892c-.184.552-5.873 6.579-12.641 13.393l-12.307 12.388 5.169 1.24c4.294 1.03 5.326 1.006 6.095-.137 1.449-2.155 13.39-22.125 14.689-24.566.679-1.276.783-2.426.248-2.757-.504-.311-1.068-.114-1.253.439zm39.786 4.416c-2.541 2.976-4.621 5.676-4.621 6 0 .325 1.125.591 2.5.591s2.5-.169 2.5-.376c0-.206 1.119-2.906 2.487-6 1.368-3.093 2.323-5.624 2.122-5.624-.201 0-2.446 2.434-4.988 5.409zm-17.046 18.516l-10.891 10.925 3.408.553c1.874.304 5.135.675 7.246.825l3.839.272 6.085-10.834c4.932-8.78 5.815-11.004 4.662-11.734-.783-.496-1.882-.908-2.441-.917-.559-.008-5.918 4.901-11.908 10.91zm61.35-10.207c-3.103.331-3.863.975-5.759 4.878-1.863 3.833-3.104 4.914-8.425 7.335-3.468 1.578-8.018 4.702-10.241 7.032l-4 4.192 3.5-.565c12.319-1.988 16.442-2.834 18.599-3.817 2.253-1.027 7.808-8.82 11.778-16.523 1.874-3.637 2.437-3.375-5.452-2.532zm-46.347 5.796c-1.608 3.122-4.42 8.163-6.25 11.202-1.831 3.04-3.328 5.697-3.328 5.905 0 .209 1.181.379 2.624.379s5.319-1.8 8.614-4c3.294-2.2 6.383-4 6.863-4 .481 0 2.46-3.15 4.399-7l3.525-7h-2.373c-1.305 0-4.348-.261-6.762-.581l-4.39-.581-2.922 5.676zm14.951 2c-3.333 5.961-3.508 6.65-2.049 8.109 1.458 1.458 2.087 1.409 7.401-.579 4.215-1.576 7.418-3.799 11.682-8.108l5.874-5.936h-19.265l-3.643 6.514zm19.915-1.457c-4.814 4.888-4.857 4.983-1.741 3.897 2.771-.966 8.113-7.471 7.027-8.557-.193-.193-2.571 1.904-5.286 4.66zm-106.288 14.206l-7.344 6.173 7.304 2.23c4.765 1.455 7.703 1.899 8.453 1.277.632-.524 3.026-3.63 5.321-6.901l4.172-5.948-4.094-1.102c-2.251-.607-4.627-1.283-5.281-1.503-.653-.219-4.492 2.379-8.531 5.774zm88.332-2.68c-2.207.784-4.573 2.323-5.258 3.421-1.135 1.817-.995 1.996 1.565 1.996 1.902 0 3.912-1.134 6.205-3.5 3.715-3.832 3.45-4.035-2.512-1.917zM388.183 715l-4.231 6h3.884c2.136 0 7.301-.289 11.479-.642 6.425-.543 8.151-1.1 11.202-3.615 1.984-1.636 3.463-3.117 3.288-3.293-.324-.323-19.562-4.45-20.746-4.45-.355 0-2.548 2.7-4.876 6zm24.762 1.614l-2.424 2.614 4.5-.679c2.475-.373 7.2-1.197 10.5-1.83l6-1.152-4.5-.709c-8.749-1.38-11.484-1.038-14.076 1.756zm53.076-1.449c-3.025.485-7.409.854-9.742.819-2.333-.035-5.128.412-6.212.991-2.107 1.128-8.535 9.87-7.798 10.606.242.243 2.106-.689 4.141-2.07 3.972-2.696 5.098-3.107 4.105-1.501-.726 1.174 7.75-1.862 18.506-6.628 7.716-3.419 7.139-3.845-3-2.217zm-32.529 1.6c-1.154.824-8.471 10.962-8.471 11.737 0 .274 3.038.48 6.75.459l6.75-.039 3.25-4.419c3.813-5.184 3.885-5.503 1.25-5.503-1.111 0-2-.667-2-1.5 0-1.594-5.564-2.137-7.529-.735zM453.521 720c-1.581 1.65-2.424 3-1.874 3 .55 0 2.293-1.35 3.874-3s2.424-3 1.874-3c-.55 0-2.293 1.35-3.874 3zm-37.274-.25c-7.218 1.158-9.043 1.765-8.233 2.742.573.69.762 1.983.42 2.873-.744 1.941.187 2.294 8.087 3.061l6 .582 3.81-5.504c4.444-6.42 5.074-6.186-10.084-3.754zm-27.698 3.161c-1.73.676-1.608.84.989 1.337 1.683.322 4.044-.024 5.472-.801l2.511-1.367-3.5.03c-1.925.017-4.387.377-5.472.801zm63.472 6.53c-9.771 1.877-15.246 4.9-24.293 13.413-7.319 6.888-8.91 7.905-14.707 9.403-15.595 4.032-15.822 4.114-12.5 4.543 5.692.735 17.448-1.905 25.927-5.822 7.096-3.279 35.573-21.35 35.573-22.574 0-.626-2.92-.324-10 1.037zm-48.416.422c-.377.611-3.813 2.06-7.635 3.221-3.822 1.161-6.949 2.517-6.949 3.013 0 1.23 11.348 1.141 18.297-.144 3.116-.576 7.586-2.146 9.934-3.488l4.269-2.441-3.5-.021c-1.925-.011-5.802-.297-8.615-.635-3.299-.396-5.358-.221-5.801.495zm21.685 1.83c.973.254 2.323.237 3-.037.677-.274-.119-.481-1.769-.461-1.65.02-2.204.244-1.231.498zm3.231 1.154c-7.629 2.102-10.383 3.716-14.572 8.539l-3.375 3.887 6.341-.459c5.435-.393 6.082-.27 4.532.864-.995.727-4.334 1.322-7.421 1.322-5.084 0-5.927.324-8.949 3.442l-3.337 3.443 5.891-1.444c3.239-.794 7.09-1.717 8.557-2.051 2.525-.574 8.179-5.473 7.896-6.84-.073-.351 2.116-2.414 4.863-4.586 4.61-3.644 8.208-8.095 6.359-7.867-.432.053-3.485.84-6.785 1.75zm-21 4.688c-2.75.675-4.1 1.295-3 1.378 1.795.135 1.719.36-.75 2.202-3.749 2.797-3.454 3.885 1.054 3.885 3 0 4.488-.706 7.043-3.342 4.284-4.42 2.759-5.867-4.347-4.123zm-22.881 2.562c-4.334.457-8.058 1.009-8.275 1.226-.217.217 3 .942 7.148 1.611 7.351 1.186 11.405.886 16.508-1.221l2.5-1.032-3-.722c-3.751-.903-5.13-.89-14.881.138zm10.315 8.036c-2.486.923-7.201 3.294-10.477 5.27l-5.957 3.592 4.5-.013c8.259-.024 15.946-2.461 19.744-6.259l3.478-3.478-3.384-.395c-1.861-.218-5.418.36-7.904 1.283zm-67.434 2.533c-5.654 2.915-6.006 3.161-5.393 3.775.243.242 5.273 1.837 11.178 3.543l10.737 3.102 14.179-1.066c7.799-.587 14.372-1.26 14.607-1.495.476-.476-.604-.731-12.808-3.025-6.88-1.294-18.875-4.487-26.26-6.991-.682-.231-3.49.74-6.24 2.157zm-12.487 6.272l-3.488 1.859 5.488.571c7.338.763 16.987 1.357 16.987 1.046 0-.198-8.309-3.075-14.5-5.021-.55-.173-2.569.522-4.487 1.545zm87.127 1.242c-4.889.613-8.363 1.66-10.351 3.121l-2.991 2.199 3.06.31c3.621.367 18.226-3.399 20.827-5.37 1.692-1.283 1.646-1.37-.685-1.279-1.375.053-5.812.512-9.86 1.019zm-28.14 1.983c-1.925.528-6.425.928-10 .891-3.575-.037-7.85.386-9.5.939-2.333.784-1.266.898 4.804.515 4.31-.271 7.563-.102 7.266.378-.735 1.19 4.432 2.114 11.823 2.114 4.928 0 6.881-.502 9.875-2.536 2.053-1.395 3.732-2.745 3.732-3 0-.84-14.425-.28-18 .699zm-83.971 12.759c-.809.533-1.259 1.164-1 1.401.259.238 9.307.753 20.106 1.145 14.841.539 19.816.42 20.377-.487.55-.89-.258-1.04-3.135-.582-3.858.614-27.61-.753-32.377-1.864-1.375-.32-3.162-.146-3.971.387zm67.784 3.761c.721.289 1.584.253 1.916-.079.332-.332-.258-.568-1.312-.525-1.165.048-1.402.285-.604.604zm-7.051 1.024c1.244.239 3.044.23 4-.02s-.062-.446-2.262-.435c-2.2.011-2.982.216-1.738.455zm-7.512.982c.962.252 2.538.252 3.5 0 .962-.251.175-.457-1.75-.457s-2.712.206-1.75.457zm-7.488 1.018c1.244.239 3.044.23 4-.02s-.062-.446-2.262-.435c-2.2.011-2.982.216-1.738.455zm-50.493 7.986c.973.254 2.323.237 3-.037.677-.274-.119-.481-1.769-.461-1.65.02-2.204.244-1.231.498zM277.521 789c.34.55 3.404.944 6.809.875l6.191-.125-4.5-.801c-6.365-1.133-9.221-1.115-8.5.051zm21.313.683c.721.289 1.584.253 1.916-.079.332-.332-.258-.568-1.312-.525-1.165.048-1.402.285-.604.604z" fill="#80379C"/></svg>